<mxfile host="app.diagrams.net" modified="2021-03-27T17:39:44.206Z" agent="5.0 (Windows NT 10.0; Win64; x64) AppleWebKit/537.36 (KHTML, like Gecko) Chrome/89.0.4389.90 Safari/537.36" etag="90QnmgrNZ1tVi8aV2TH0" version="14.5.3" type="github">
  <diagram id="C5RBs43oDa-KdzZeNtuy" name="Page-1">
    <mxGraphModel dx="1038" dy="579" grid="1" gridSize="10" guides="1" tooltips="1" connect="1" arrows="1" fold="1" page="1" pageScale="1" pageWidth="827" pageHeight="1169" math="0" shadow="0">
      <root>
        <mxCell id="WIyWlLk6GJQsqaUBKTNV-0" />
        <mxCell id="WIyWlLk6GJQsqaUBKTNV-1" parent="WIyWlLk6GJQsqaUBKTNV-0" />
        <mxCell id="yH1s51-ZTlb_laRpBR-V-0" value="" style="shape=image;verticalLabelPosition=bottom;labelBackgroundColor=#ffffff;verticalAlign=top;aspect=fixed;imageAspect=0;image=data:image/jpeg,/9j/4AAQSkZJRgABAQAAAQABAAD/2wBDAAMCAgICAgMCAgIDAwMDBAYEBAQEBAgGBgUGCQgKCgkICQkKDA8MCgsOCwkJDRENDg8QEBEQCgwSExIQEw8QEBD/2wBDAQMDAwQDBAgEBAgQCwkLEBAQEBAQEBAQEBAQEBAQEBAQEBAQEBAQEBAQEBAQEBAQEBAQEBAQEBAQEBAQEBAQEBD/wAARCAJsA3gDASIAAhEBAxEB/8QAHQABAQACAwEBAQAAAAAAAAAAAAcICQQFBgMCAf/EAHEQAAAFAwECBA0NCQgOBggHAQABAgMEBQYHEQgSEyE4dwkUFxgiMTI3QVi109UVFlFWV3J2lZaXsbS2GSNhcXWFpKazOUJSg5KT0dIkM1RigYSGh5GUssHD1DZ0gqHCxDQ1Q0VTVWOiJURGZ3PF4/D/xAAbAQEAAQUBAAAAAAAAAAAAAAAABgECAwQHBf/EAEARAQABAwIDAwkFBgUFAQEAAAABAgMRBCEFEjEGQVETFCJhcYGRsdEyQlOhwQcVFlJy8CQzNZLhIzRiY7Ki8f/aAAwDAQACEQMRAD8A2pgAAAAAAAAAAAAAAAAAAAAAAAAAAAAACX7RsuVCx9SXocl1hxV+WQya2lmkzQu56YhadS8CkqUky7RkZkfEYqAlW0t3uqRzgWJ9qqWA+su49pluW8iFh/Gj8ZLiiZcXkWc24tGvYqUj1FMkmZaGZEpREfFqfbHy9dO06XdYTx0fvcjTD+mjkKqACVeu7aXLusHWKfvchSD+mlEHry2kC7rBNon72/nD+mnEKqACVevbaKLusCW4fvb61+mEQevvaELutn+jn729mz+mKQqoAJV6/wDPpd1s9Qj95ecc/pZIOqHncu62dSP3t3wz+lBCqgAlXVHzgXdbOEo/e3XTz+kyDqmZqLutmuqn7256Yf0ukKqACVdVDMZd1szXAfvbjpB/TIIOqpl0u62YbsP3twUQ/pmEKqACVdVnKxd1suXufva5QD+meQdV3KBd1sr5CP3lYtw/pqZCqgAlXVhySXdbKWTT97VLYP6auQdWXIRd3so5VT/j9rn9FYMVUAEq6tN8l3ey1lVP+MW6f0VUw6tl4F3ezJlVP+GhH9FTMVUAEq6t9zl3ezblVP8AE0g/oqBh1cq8Xd7O+VU/4lTT+iaYqoAJV1dqqXd4Ayqn81wz+iUYdXmWXd4Jyqn8yMH9EgxVQASrq+KLu8J5VT/k6R/Q6YdcAwXd4cyqn/JZw/oUYqoAJV1wdPLu8S5VT/kfKP6CMOuGoxd3i/Kqf8iJ5/QgxVQASrribdLu8cZVT/kDVT+hkw6421C7uwcqp/zdVo/ojGKqACVdchZZd3ZeVU/5s7gP6IZh1ydgl3dqZVT/AJrLlP6IJiqgAlXXLY5Lureykn32KbpL/wDrw65jGRd1SskJ99jG5U/TAFVABKuuaxYXdR78T77Hdwp+mEHXOYl/fOXin31iV1P0wxVQASrrncPl3VQuZPv7NrKfpih1z+GC7quVtPv7WqqfpjCqgAlXXQ4SLurpnp9/b9ST9LAddHgwu6vVxPvqROT9LIqoAJV10uBS7rILCffQpSfpbDrptn8u6ybTU++beT9KBVQASrrqNngu6y1QU++dUn6SDrqtnIu6zNayffzkp+kVUAEq66zZrLus5WWn39XZT9Jh112zKXdZ+sBPvrgip+lYqoAJV11+y8XdbRWNU++umCn6XB/S2r9ltR6FtJ4s19j1407X9sKoP4aUqLRSSMvwkAmKdqTZkX3G0XjBX4rvp5/8UfVO0zs3r7jaBxsr8V1wD/4ooioUNfdxGVfjbIx8VUekL7ulQ1fjYSf+4B4dG0bs9L7jPGO1fiuiCf8AxR9kbQOBV9xm6wVfiuWEf/EHrFW3bq+7oNOV+OK2f+4fJdn2kvu7XpCvxwmj/wDCA86jO2EF9xmSxlfiuGIf/EH2TmrDa+4y1ZivxV6Kf/EHbLsSx193ZtDV+OnMn/4R8lY4x4vu7Dt1X46Wwf8A4QHDTl7Ey+4yhaSvxVuMf/jH2TlPGK+4yNa6vxVeOf8A4wVizGK+7xza6vx0iOf/AIB8VYhxMvu8X2kr8dEjH/4AHMTkfHi+4vy3VfiqjB/+IfVN92OvuLyoavxVFk//ABDqVYVw2vu8S2Yr8dBin/wx8VYJwgvu8N2Mr8dvRD/4YD0SLwtJfcXRSFfimtH/AOIfVFyW6vuK9TlfilIP/ePJr2fsCr7vCNgq/HbUI/8Ahj4r2ctnpfd4Hx2r8drwT/4QD3CaxSF9xVYavxPpP/ePsmbDX3EtlX4nCMTtWzNs3r7vZ9xsr8dqQD/4Q+StlvZkX3ezpjBX47Qp5/8ACAU4lJUWqVEZfgMf0Ss9lDZbUep7NmLNfZ9Z1O1/Yj+dahsvF3OzrjVPvbWgp+hsBVQEq61LZlLucA2An3tvxU/QgOtT2ay7nBtlp95SGU/QQCqgJV1quzkXc4ZtZPvYKU/QHWr7PBdziWgp960pP0KAVUBKutZ2fy7nGVNT71x5P0LDrWsCl3OPmE+9myk/Q4AqoCVda5gwu5spxPvavOT9Dwda9hIu5taoJ97cFST9D4CqgJV1sGGC7mh1tPvLpqqfokh1sWHy7mn3Mn3l5VlP0SgFVASrrY8Sl3Ld4p97fddT9EwOtlxZ+9kX4n3uRLhT9E0BVQEq62fGRdzVckJ97k65U/RPDraccl3Nw5ST73K10l//AGACqgJV1tlgl3F15VT/AJ07lP6Zxh1t9ll3F6ZVT/nMuA/pmGAqoCVdblahdxfuVU/5xa0f0yTDrdrdLuMj5VT/AJfVU/peMBVQEq63mjF3GUMqp/y3nn9KzDrfKeXcZayqn/LCUf0mYCqgJV1AGC7jMeVU/wCVLh/Skw6gai7jNmVU/wCURH9LRgKqAlXUGll3Gdsqp/PbB/THMOoTVS7jP+VU/nSGf0xTAVUBKuobXi7jaIyqn/Haaf0wjDqIXOXcbSWVU/x1IP6aeYCqgJV1E7wLuNpvKqf8FCP6aYYdRa+S7jalyqn/ABe3T+mlGAqoCVWzZlcp18KpUjadyBX5tGjxanOoc+Jb6WnIshb7bJumxS23SQtcaQRGhxKtWlcfsgFVAAAAAAAAAAAAAAAAAAAAAAAAAAAAAAEq2lu91SOcCxPtVSxVRKtpbvdUjnAsT7VUsBVQATTIeZKlY9/UHH9IxLdd4zK9R6jWW1USTTW+CahvRGnCUU2VHI9Dms66Hr2SdCV2ZoClgJV1aL7Lu9lnKqf8atw/oqxh1a7xLu9mPKqf+1QT+ipmAqoCVdW+5y7vZsyqn+Ko5/RUDDq5V4u72dsqp/xKmn9E0wFVASrq7VQu7wBlVP5rhn9Eow6vMou7wVlVP5kZP6HzAVUBKur6Zd3hTKqf8nNfocMOuAjF3eHsqp/yVdP6DMBVQEq64SmF3eKMqp/yNln9BGHXD0Mu7xllVP8AkNUT+hswFVASrri7ZLu8eZVT/m/q5/QwYdcdZ5d3Y2VU/wCbeun9EUwFVASrrkrGLu7Qyqn/ADYXEf0QjDrlceF3dtZVT/mpug/op4CqgJV1y+NS7qjZMT7/ABdcyfpgB1zOLi7qHkBHv8cXEn6YICqgJV1zeJy7o70T7+wa8n6YYdc7iD99OuhPv7LrSfpiAKqAlXXP4ZLuq3XEe/tWrJ+mMHXQ4TLuroqCPf2/Uk/THAVUBKuujwYXdXq4n39InJ+lkOulwKXdZCjo9/ClJ+lsBVQEq66bZ+LusnUxPv0PJ+lAddRs7l3WW6An37xp+kgFVASrrqtnAu6zRaiPf1BCfpDrrNmou6zrZCPf1phP0qAVUBKuuu2Yy7raCx4n39xxE/SsOuw2XP320fjBPv7tgJ+l0BVQEtRtV7Ly+42kcWq/FeFOP/jD7I2n9mpfcbQ2M1fiu2Af/FAUwBOEbSWzq53GfMcq/FdME/8Aij7I2hsAudxnHH6vxXNCP/iAO/8AX5bybpn2k6861Lp0NM151xGjG5qW8kl692kltKUWnETqD49eL7M3xZsiCups3VSlxGt4lvlLRuJ039dVa6FpwTmvvFewYk9SrezbVHJFQgZ8tumViVJlSF1iBc9OTMPh2zbU3vq3k7iUbhJLd1LgWz11TqfweTgCcw3DXtEUlURMVMRcZqu0dDbqUNPNNmZIaI0mlEhRFuGkj3U6kfHqFjpV5WlXZRQqJc1LnyDb4Umo0ttxZo0SZq0SZnpotB/iWn2SHmaJmOhVOoORKrRqlb8c25D8WdVHoZMS2mXUtuOJ4F9xbZby0acKlsz3i0LXUi6Gi1XAtIup+7YGWLYckPqcc4FVXpykIcWhtClpWRcKRmTfa4Td7JXFpoRcGTRNnyYwTMTJNCiLW1wUh2LV4JKlmmQmQ0t4jI0uKbcSZoMy4iWsj1JRkYUtV/2Kgkmu8aKkltKfSap7REbaSUpSu67REhZn7BIV7Bj7x7xtOWwqTFuWmOtJNKVLRKQZJNTim0kZkfEZuJUjT+Eky7ZCWHaGFHnG3I+VoTCksKZWcSoUxg3jUbyt9w2mkmvRb5uEgzNvfSlW5rvb3LVaOMZMxc5WX3HHZUhuTP0qVO0nLbeN1rhNGuxJJnoXB7mpEWup8YD3kbJOPZjXDRb5oLzfBG/voqDRpNst3VWu92uzRx/3yfZIfSq3rSINLh1Kmodraqm8cenx6atpa5bpJUo0oUtaWy0S2szNS0kW6ep68Q8HNx5iuqu8Id/EhHS0aMTTEyClKulybJlbhk1vPGk2kqInDWgjM9EkXEXe+tiyVW7T6BTrxTDXTJTkyNOiPQ0vE65wnCGaODNhRLS64lRG0ZGSjPTe0UQd7Fvy3FNRE1iWVCnS9STTqqtDElKiWaDLd3jJRbxGRKQakK4jSpRGRj6zb7sqmqZRULto8ZUgt5onZraN8t1K9S1PjLdWhWvsKI+0Y8LRcMY7o1OYpFJuWQzBSttyTGjqgsMyzbkrkt7yGmUpbJLrij0ZJsjI9D1H56icB2Sy0nINakQlwpEGbwiofDPMLajspZI0xySSNxg9TIiXqepKAVkB+UJSlCUo7lJaF+IfoAAAAAAAAAAAAAAAAAAAAAAAAAAAAAAAAAAAAAAAAAAAAAAAAAAAAAAAAAAAAAAAAAAAAAHmrTviLdlevSgx4LrDlmVxqhvuLURlIWumwp5OJIu0RJnoRofHqhR9oyAelAAASq3OVPkPm/s3yjcYBbnKnyHzf2b5RuMAFVAAAAAAAAAAAAAAAAAAAAAAAAAAAAAAEq2lu91SOcCxPtVSxVRKtpbvdUjnAsT7VUsBVRKrj5U+POb+8vKNuCqiVXHyp8ec395eUbcAVUAAAAAAAAAAAAAAAAAAAAAAAAAAAAAAAAAAAAAAAAAAAAAAfhbLK+7aQr8aSMfFdNpy+7p8ZX42kn/uHJABwF0ChL7uiwFfjjIP/cOouSLj22KPJuC5KVR4lPiESnn3YSFEkjUSS4iSZnqZkXEXhHph568LPj3m3T4VRmut0+LK6akR2jNJyTJCiQk1kZGlKVKJfh1NKQH6O0LDdMkqtegLNREoiOEyepH2j7kfJywccq14WyrbPQtT3qax2v5I8QrCddcebckXjSpRwKezT6Y9IoSlyIyWlJUla3CklwqlcG2lZmRGaUmSTRvKM/hMwVDcbcl1y5KS5V59QbfKSumG204rh5LvS+5w++pBnIMySTnEptKuy00Aeul2RiGPUWaVNsW10yZLDslpK6Mzopto0k4e9ubvFwieLXXj17RGOvi2fgepUqLW0WDaJQpy2kR3JNAZZ4U3FElvdS42Sj3jUkiPTj14h8Kpa1sViwINDp98wIjFqkmFLqLLxOIZaQ0bMphZqdM2jU0paeyWZoPcUe9u6H0S7Cx7W6qVQpt9WxJm1aWy5STNtmQZFGmqlOts6Oka+JZIVumW7ukoyPuQHs14bwwvQnMVWUrXta0OIev/ANg6yRifZ6Q/IjSMUWIbkaL066Xrciq3WdVFv6k1ofGhXEXHxdodVAwupD7cauXbR6hUItLVFp5eoqSNhCYyI6HzadecJak6amfEk9/d0Lw/2xbCt21pdVgNX7RpUi7YjpQosZBNnwZJJK1tIU+tTiS7Z7uiSM/AXEA+lIxhsu3MTCqPirHM5Eqns1VlxFtQzQuK8aibcJRtaaGaFcWuvFxkQ5TOA9mme7JYYwnjV9yG6TEhJWzAM23DSlW6r71xHurSf+Eh0VSwTRmahNfbveNGisRYEhdOlRyVHjcCqQp15SUuoUTTqnVubpqIkuINWp8aRwl4NocyUu2qNkimxKpBS1N6XixicktGmNHRHddQp9S1JRIitPINXbLVBmeu8A9WvZq2aF68JgHGStC1PW1aeehfzQ4MDZt2Uq3G6bg7PWLZDXCOtb3rPgd024ptZaGzrxLQote1xcQ/Luz5TnX2mFVOAqmsutOcEulEqS+lBxtWXnjc0caMo2hINBaaoPU9zRXqrAxw1YM2sPxKp0yxV5C5Smls6KZWp51e6hZqPRokuJSTZFukpK1FpvmQDzp7J+y12y2bMWpP2U2fTy+hoOtQ2YS7nZ4xwj3lsQ0/Q2KqACVdalszl3OBbER7yhR0/QkOtU2bi7nCVoI95TG0/QQqoAJV1q2zqXc4ftxHvIu79Bh1rGz4Xc4spCfe8In6FCqgAlXWtYDLuccxE+8lSE/Q4HWuYKLubGNPvapMT9DoqoAJV1ruEC7m05ifeV2op+h8OtfwuXc0CsI95c9VT9EkVUAEq62HDxdzTbkR7y8ayn6JQdbHiUu5avBPvb6rqfomCqgAlXWy4sLuZF+J95kS4U/RNDrZ8ZF3NVyQn3mTrlT9E8VUAEq62nHRdzcWU0+9ytdBf/2AdbZYZdxdmVU/50rkP6ZxiqgAlXW4WYXcXtlVP+cqvn9Msw63O1i7jIGVU/5w6yf0yDFVABKut3oBdxkrKqf8u6mf0umHW9Uku4yplVP+Wk0/pUYqoAJV1v0Mu4y9lVP+Vr5/SRh1AUl3GaMqp/ylM/pQYqoAJV1BHy7jOWVU/n5s/pZMOoRUS7jPeVU/naKf0xjFVABKuoXWy7jaFyqn/H6ef0wzDqH3IXcbR+VU/wCMUk/pgGKqACVdRK7i7jaZyqn4jP6aaYdRa+C7jajyqn+It0/ppRiqgAlXUZyCXcbVuVU/4hbB/TRzDqPZJLudq7Jx+/pdsH9FIIVUAEq6kWUC7naoyEfv6Pbh/RTCDqT5XLudqO9j9/Q6Af0QCFVABKupXl4u52nbqP39v0Q/oiEHUwzIXc7TFeP39t0g/oYIVUAEq6mmay7naTqR+/temH9DZB1Oc5F3O0a8fv7Tgn9GgqoAJV1Pc8l3O0Q0fv7Pin9DhB6wtoAu52g6cfv7LZP6JBCqgAlXrG2hy7nPtCP39jpP6JhB6y9o0u5zxax+/sNR/RPIVUAEq9aG0oXc5zso/f4/eP6KmQetTabLuc24+P3+O5R/RVyFVABKvWztRF3OaMZH7/G84/orZDr9ntivxrszWxdNTp9RqyL8hlLlU+CuHHdX61qD2TbC3XlNl2uI3Vn+EWUSrDffFztzgQ/srQQFVAAASq3OVPkPm/s3yjcYBbnKnyHzf2b5RuMAFVAAAAAAAAAAAAAAAAAAAAAAAAAAAAAAEq2lu91SOcCxPtVSxVRKtpbvdUjnAsT7VUsBVRKrj5U+POb+8vKNuCqiVXHyp8ec395eUbcAVUAAAAAAAAAAAAAAAAAAAAAAAABj/U8bUPIG1DfEav129Y8eFY9qSmGKNetZpDSXXp1dbcUaIUppKtUxmeIyMiMlGWhrWagyAASrracde2PKvzsXV6RDracde2PKvzsXV6RAVUBKutpx17Y8q/OxdXpEOtpx17Y8q/OxdXpEBVQEq62nHXtjyr87F1ekQ62nHXtjyr87F1ekQFVASrracde2PKvzsXV6RDracde2PKvzsXV6RAVUBKutpx17Y8q/OxdXpEOtpx17Y8q/OxdXpEBVQEq62nHXtjyr87F1ekQ62nHXtjyr87F1ekQFVASrracde2PKvzsXV6RDracde2PKvzsXV6RAVUBKutpx17Y8q/OxdXpEOtpx17Y8q/OxdXpEBVR527LUYuKZQqgUWEuVRak3MaefRqtpGhk5wZ6GZKUR6eDUtSMx4zracde2PKvzsXV6RDracde2PKvzsXV6RAdta9r3lQapW6kVOt+MmoRmGI7EeY6ptpTCHSQpKTZLg21GpBcERmSNFqJSjMyPpX8S19iq2/Mp8uEtNPagqmuuSnG1OyGpSpD7q2ybUUg3FLUZbykbijNRamY+nW0469seVfnYur0iHW0469seVfnYur0iA7qtWDUaxV5NfhOU2i1Kp0X1NmymW1PuGrhW1bm8XBqcbJJOJI95Ci39SJJmPIWph69rVq1KnlMoskoLTCDSxJfix20tdMaNIjGhxCiMnWyJxSt5vszQXGZL7Xracde2PKvzsXV6RDracde2PKvzsXV6RAdnc+LYlxuXa87R6LvXRQWILiXW98lzGuHNDjp7nZJTwje6rQzLc7RaEOTRrVuNm/Xq5VadRWqXGaWinHClLJ41uIaJ159s2CJbijb3d7hDJKEpLQzMzHR9bTjr2x5V+di6vSIdbTjr2x5V+di6vSICqgJV1tOOvbHlX52Lq9Ih1tOOvbHlX52Lq9IgKqAlXW0469seVfnYur0iHW0469seVfnYur0iAqoCVdbTjr2x5V+di6vSIdbTjr2x5V+di6vSICqgJV1tOOvbHlX52Lq9Ih1tOOvbHlX52Lq9IgKqAlXW0469seVfnYur0iHW0469seVfnYur0iAqoCVdbTjr2x5V+di6vSIdbTjr2x5V+di6vSICqgJV1tOOvbHlX52Lq9Ih1tOOvbHlX52Lq9IgKqAlXW0469seVfnYur0iHW0469seVfnYur0iAqoCVdbTjr2x5V+di6vSIdbTjr2x5V+di6vSICqgJV1tOOvbHlX52Lq9Ih1tOOvbHlX52Lq9IgKqAlXW0469seVfnYur0iHW0469seVfnYur0iAqoCVdbTjr2x5V+di6vSIdbTjr2x5V+di6vSICqgJV1tOOvbHlX52Lq9Ih1tOOvbHlX52Lq9IgKqAlXW0469seVfnYur0iHW0469seVfnYur0iAqoCVdbTjr2x5V+di6vSIdbTjr2x5V+di6vSICqgJV1tOOvbHlX52Lq9Ih1tOOvbHlX52Lq9IgKqAlXW0469seVfnYur0iHW0469seVfnYur0iAqoCVdbTjr2x5V+di6vSIdbTjr2x5V+di6vSICqgJV1tOOvbHlX52Lq9Ih1tOOvbHlX52Lq9IgKqAlXW0469seVfnYur0iHW0469seVfnYur0iAqoCVdbTjr2x5V+di6vSIdbTjr2x5V+di6vSICqgJV1tOOvbHlX52Lq9Ij67LMuVP2Y8Qz58l2TJk2HQHnnnlmtbi1U9g1KUo+MzMzMzM+MzMBUBKsN98XO3OBD+ytBFVEqw33xc7c4EP7K0EBVQAAEqtzlT5D5v7N8o3GAW5yp8h839m+UbjABVQAAAAAAAAAAAAAAAAAAAAAAAAAAAAABKtpbvdUjnAsT7VUsVUSraW73VI5wLE+1VLAVUSq4+VPjzm/vLyjbgqolVx8qfHnN/eXlG3AFVAAAAAAAAAAAAAAAAAAAAAAABKrc5U+Q+b+zfKNxiqiVW5yp8h839m+UbjAVUAAAAAAAAAAAAAAAAAAAAAAAAAAAAAAAAAAAAAAAAAAAAAAAAAAAAAAAAAAAAAAAAAAAAAAAAAAAAAAAAAAAAAAAAAAAAAAAAAAAAAAAAAAAAAASrZO5LGG+b+3vJzAqolWydyWMN839veTmAFVEqw33xc7c4EP7K0EVUSrDffFztzgQ/srQQFVAAASq3OVPkPm/s3yjcYBbnKnyHzf2b5RuMAFVAAAAAAAAAAAAAAAAAAAAAAAAAAAAAAEq2lu91SOcCxPtVSxVRKtpbvdUjnAsT7VUsBVRKrj5U+POb+8vKNuCqiVXHyp8ec395eUbcAVUAAAAAAAAAAAAAAAAAAAAAAAEqtzlT5D5v7N8o3GKqJVbnKnyHzf2b5RuMBVQAAAAAAAAAAAAAAAAAAAAAAAAAAAAAAAAAAAAAAAAAAAAAAAAAAAAAAAAAAAAAAAAAAAAAAAAAAAAAAAAAAAAAAAAAAAAAAAAAAAAAAAAAAAAABKtk7ksYb5v7e8nMCqiVbJ3JYw3zf295OYAVUSrDffFztzgQ/srQRVRKsN98XO3OBD+ytBAVUAABKrc5U+Q+b+zfKNxgFucqfIfN/ZvlG4wAVUAAAAAAAAAAAAAAAAAAAAAAAAAAAAAASraW73VI5wLE+1VLFVEq2lu91SOcCxPtVSwFVEquPlT485v7y8o24KqJVcfKnx5zf3l5RtwBVQAAAAAAAAAAAAAAAAAAAAAAASq3OVPkPm/s3yjcYqolVucqfIfN/ZvlG4wFVAAAAAAAAAAAAAAAAAAAAAAAAAAAAAAAAAAAAAAAAAAAAAAAAAAAAAAAAAAAAAAAAAAAAAAAAAAAAAAAAAAAAAAAAAAAAAAAAAAAAAAAAAAAAAAEq2TuSxhvm/t7ycwKqJVsncljDfN/b3k5gBVRKsN98XO3OBD+ytBFVEqw33xc7c4EP7K0EBVQAAEqtzlT5D5v7N8o3GAW5yp8h839m+UbjABVQAAAAAAAAAAAAAAAAAAAAAAAAAAAAABKtpbvdUjnAsT7VUsVUSraW73VI5wLE+1VLAVUSq4+VPjzm/vLyjbgqolVx8qfHnN/eXlG3AFVAAAAAAAAAAAAAAAAAAAAAAABKrc5U+Q+b+zfKNxiqiVW5yp8h839m+UbjAVUAAAAAAAAAAAAAAAAAAAAAAAAAAAAAAAAAAAAAAAAAAAAAAAAAAAAAAAAAAAAAAAAAAAAAAAAAAAAAAAAAAAAAAAAAAAAAAAAAAAAAAAAAAAAAASrZO5LGG+b+3vJzAqolWydyWMN839veTmAFVEqw33xc7c4EP7K0EVUSrDffFztzgQ/srQQFVAAASq3OVPkPm/s3yjcYBbnKnyHzf2b5RuMAFVAAAAAAAAAAAAAAAAAAAAAAAAAAAAAAEq2lu91SOcCxPtVSxVRKtpbvdUjnAsT7VUsBVRKrj5U+POb+8vKNuCqiVXHyp8ec395eUbcAVUAAAAAAAAAAAAAAAAAAAAAAAEqtzlT5D5v7N8o3GKqJVbnKnyHzf2b5RuMBVQAAAAAAAAAAAAAAAAAAAAAAAYhdFVrVZt/Y6r9SoNWm02YirUtKZER9bLhEchJGRKSZHoZDL0Ya9Fs5Ftw/lilfWUgMNsC4p6KdemIraurE2YXo9pVOMt+mNv3A2hwmzdXvGoloNWprJZ8ZmfGPf8AUC6Ml7tX6xsebGZPQ8ORbir8jufWXhkWA1V9QLoyXu1frGx5sOoF0ZL3av1jY82NqgANVfUC6Ml7tX6xsebDqBdGS92r9Y2PNjaoADVX1AujJe7V+sbHmw6gXRkvdq/WNjzY2qAA1V9QLoyXu1frGx5sOoF0ZL3av1jY82NqgANVfUC6Ml7tX6xsebDqBdGS92r9Y2PNjaoADVX1AujJe7V+sbHmw6gXRkvdq/WNjzY2qAA1V9QLoyXu1frGx5sOoF0ZL3av1jY82NqgANVfUC6Ml7tX6xsebDqBdGS92r9Y2PNjaoADVX1AujJe7V+sbHmw6gXRkvdq/WNjzY2qAA1V9QLoyXu1frGx5sOoF0ZL3av1jY82NqgANVfUC6Ml7tX6xsebDqBdGS92r9Y2PNjaoADVX1AujJe7V+sbHmw6gXRkvdq/WNjzY2qAA1V9QLoyXu1frGx5sOoF0ZL3av1jY82NqgANVfUC6Ml7tX6xsebDqBdGS92r9Y2PNjaoADVX1AujJe7V+sbHmw6gXRkvdq/WNjzY2qAA1V9QLoyXu1frGx5sOoF0ZL3av1jY82NqgANVfUC6Ml7tX6xsebDqBdGS92r9Y2PNjaoADVX1AujJe7V+sbHmw6gXRkvdq/WNjzY2qAA1V9QLoyXu1frGx5sOoF0ZL3av1jY82NqgANVfUC6Ml7tX6xsebDqBdGS92r9Y2PNjaoADVX1AujJe7V+sbHmw6gXRkvdq/WNjzY2qAA1V9QLoyXu1frGx5sOoF0ZL3av1jY82NqgANVfUC6Ml7tX6xsebDqBdGS92r9Y2PNjaoADU9XMM9GGt6i1Cv1HNikxKbFdmPmi4WFKJttBrVoXB8Z6EfEL/ANCo2hssZ/xfdcjK1zLrci26lHgQ5DraSeWhba3FqcX21qNStOPiIkpIiLw5b5Y71l5fB+o/VnBgB0ELvV5L+EET6sYDZUJVsncljDfN/b3k5gVUSrZO5LGG+b+3vJzACqiVYb74uducCH9laCKqJVhvvi525wIf2VoICqgAAJVbnKnyHzf2b5RuMAtzlT5D5v7N8o3GACqgAAAAAAAAAAAAAAAAAAAAAAAAAAAAACVbS3e6pHOBYn2qpYqolW0t3uqRzgWJ9qqWAqolVx8qfHnN/eXlG3BVRKrj5U+POb+8vKNuAKqAAAAAAAAAAAAAAAAAAAAAAACVW5yp8h839m+UbjFVEqtzlT5D5v7N8o3GAqoAAAAAAAAAAAAAAAAAAAAAAAMNei2ci24fyxSvrKRmUMNei2ci24fyxSvrKQHv+h4ci3FX5Hc+svDIsY6dDw5FuKvyO59ZeGRYAAAAAAAAAP4ZEZaGXEAl9IzbCcqtcTXYpRaVFkIOnS0trSTkThzjOPrNeiVJS8SVGpGpE280Z+Ex9ZWbabwrUJiiVSK8+lhbbz7DTrRGtcYlNr3HtUOEUpJbqjJRaKPdMiIle4kWvbMuG3Tpdu0x6IzGXDbYciNqbRHWSSU0STLQkGSUkae0e6XFxEPk5ZdnPVFdXetOjLnuHquUqA0byj1Qepr3d4+Nts+3+8T7BAJ45ndXqVT0x7blSKrLjwXjU0TRxXFuLiE60hXC9gsil9ilw0nqkzPi0NX2fzUp2sIhwoDjLRO9LyGZEVKnmnilpjKQSkvbiiNe92XaItFdn3I9q9jrH0hS1P2JbzhuNkyo10tgzU2W5ok9U8Zfem+Ltdgn+CWnJYs60YyWkRrWpDSWCSlokQWkkgkqJSSToniIlESi07RlqA8/ZeUYl1LpdMkUmTDq0+A1UHIxqQpLTC2UL4XeJXGjfXwZHpqaiPi0LUdJR77v2LcFQOtKpVfob031Mox0ilqhPvykk448RrfmONrbbQ0aTX2G84SyJOhcft6RZtv0Kpu1Ol09mMpcVuC0yyy221HjoUpZNtpQktCNa1KPXXjP2CIhxWsY42YjOQ2Me202w8RE40ikxyQsiPUtSJGh6HxkA8u3ny3XYSKmi2q+cN8kJiuk0wo5DiijbraUk6aiPWW2WpkRapXx6ERn3NYvyqHj5287coBpfaWolxaua4ymkodNDijJKVGoy3TNJEZErUuyIj1HoHLTtZ6KcF22qUuMpKkGyqG2aDSokpMt3TTQyQgjL2EpLwEOQzRKLGpZUOPSITVOSk0FDRHQlgkmepluEW7prx6aAOaAAAAAAAAAAOrumvxrWt2o3FLQpxunx1v8GgtVOqIuxQki4zUpWiSLwmZDtB8ZUOJOaJibFZkNktDhIdQS0ktCiUhWh+ElERkfgMiMgE6t3MsZ2lU9q6IC2K4+85CfYjINDRyW3kIWSCdNKklwbiH+y/8AZGatT0McVWcY02TDZp1JlQzXLZZfRPZRuqbW5DI3EOod3NCRL4jLeSZkfZaJ7Kiu29QH5fqg/Q6e5K4U3+HXGQbnCm1wRr3jLXe4MzRr293se1xDhRLDsenlpAsyhRiNRL0ZpzKOyLc0PiT2y4Jv+bT/AAS0Dwis9R1yycj2lVzgxIkyXUCUlgnW22mozyXWz4bccRuPnruGrUyLd1LjP8N5onqqJxWKaiYlc5ERlCWOBUpByYzKlqUp0ySaemDMi0Pe0LuNND9unGuOUcGSbAtsuCXwqNKUx2K91Kd4ux4j3UILX2EpLwEOY9Z1oyErQ/atHcS4ZqWS4LRkozUlRmeqeM95CFfjQk+2RAOjZyFEuG2a1VaDOao66U1uvTKpF4diJIJO8404026hS1N8RKSS08aiIlHxjoKDlC56JR2yyZSCeqJmxIfcpcIojcWNKkKZiE6y9JcWTqjSZrShSyTrprxcftY1j203RJNvT6XGqkKdJcmzG57DbyZL63OEU4tG7uGe/oZdiRFoWnaH5Zx9YUdUZbFkUBtUNSlxzRTWUmyo+2aNE9iZ+HQB5I870dDbJO2dcxSXmOm+lW47LzqY/Asum4ZNuKLtSEFuke9valp2jPvq3ctwwr0pFEphU2REmpSp6ITTq5hNdlwkhSyMkMNo0SRbyVG4pRpI0mXH28uzbQnpbRPtWjyUsqSpsnoLSyQaUkhJlqniMkkSS07RERdofuRalryq03ckq26U9V2UpQ3PchtqkoSnXdInTLeIi3laFrxbx+yA7UAAAAAATJjMzDV1V6nVODuUeBqUGW02slOkw6hqatSlaINLS3CPsTM91tw+PTQf2dnGitkhuNSamgpLSnI8o2WnmSPgTfTvpS6Skmpot5KVGlRkoj00PUe7ety3pMVEGRQac7GaJ0kMrioUhJOpUlwiSZaFvpWsleySlEeupjiu2RZciWmoP2hRXJSE7iX109o3CTuE3oSjTrpuESdP4JadoBPZ2eDhUFLhW/IkVVcNbyFME2qKb6WDf4JR8LvNqNCeIl7pnqR9ye8PvV81LjVVVPjU12IqMtbM1mVFS44ypLctWqVNv7i9Tjo4tS0JXGep6J9tJx7YMxanJdj2++pbamVKcpjKjNtSODUk9U9o0diZdo08XaH2ZsqzY7SGI9pUZptsjJCEQGkpSRmsz0Ik8Wpuun/GL/hHqHn7YynErsqnUebR5USqVEjcbYJSFp4EjfI3d4ldyRsGlXFqSloLTsh/ZeU2Y1Sl0xm1KvLXGkriIcYcjcG+4hpx11KFLdSWqENlva6aKWlPbJe73sCzLeplbKuwKezHebjuxmW2WW222Uuuk68pJJSR7zi0pUozM9TSR8Wp68c8aY5U1JZVYFtm3MdU/JQdKY3XnDNRmtZbvZKM1rMzPj7NXsmA8sWebfW1HktW1X3GJ6zRAcQ0yrpoycZbPdSTm+kiN9J9kRcSVeEiI+fdF/1iNZMa87dp7TKSjLqEmDU2FplcC2Rb6CbSot0y1Pec1WSSLUkOakQ9TJtO1pjHS0y2qU+z2R8G5DbUnslpWriMtONaEKP2TQk+2RD8zLPtKoU+HSZ9r0mTBp+70pGehNraj7pbpcGg06I0LiLQi4uIB2ra0utpcQojSsiURkepGRj9AAAAAA8pljvWXl8H6j9WcGAHQQu9Xkv4QRPqxjP/ACx3rLy+D9R+rODADoIXeryX8IIn1YwGyoSrZO5LGG+b+3vJzAqolWydyWMN839veTmAFVEqw33xc7c4EP7K0EVUSrDffFztzgQ/srQQFVAAASq3OVPkPm/s3yjcYBbnKnyHzf2b5RuMAFVAAAAAAAAAAAAAAAAAAAAAAAAAAAAAAEq2lu91SOcCxPtVSxVRKtpbvdUjnAsT7VUsBVRKrj5U+POb+8vKNuCqiVXHyp8ec395eUbcAVUAAAAAAAAAAAAAAAAAAAAAAAEqtzlT5D5v7N8o3GKqJVbnKnyHzf2b5RuMBVQAAAAAAAAAAAAAAAAAAAAAAAYa9Fs5Ftw/lilfWUjMoYa9Fs5Ftw/lilfWUgPf9Dw5FuKvyO59ZeGRYx06HhyLcVfkdz6y8MiwAAAAAAABCdsraBunZuxJHv2y7VjXLWpVZj0uLSHUuqXL323XFk2TXZGtKGlucRH2La+LwldhKsyd8XBPOBM+yteAa7K70XPapgIZcLZgpdMSo1Eap0OpKJZ8WhJ40aacevb7Zdrw9R92H2p/cCtX/UKj50bfwAagPuw+1P7gVq/6hUfOh92H2p/cCtX/AFCo+dG3mXLiwIzs2dJajx2EG4686skIbSXGalKPiIi9kxx3a5RWKkzR36vCbnySJTMVchBPOFoo9UoM94+JtZ8RdpCvYMBqO+7D7U/uBWr/AKhUfOh92H2p/cCtX/UKj50bd4U+DUmTkU6axKaS4tk1suEtJOIUaVp1I9NUqSaTLtkZGR8ZDhXFdlrWhCOp3ZctKokMuM5FRmNxmy7JKe6cMi7pSS/Goi8JANSEroxm1OywpzqFWexpp98dgVE0lx+H78X0jr/uzO1P7kWP/i2o/wDNDcbBnQqnDZqFNmMS4shBOMvsOE424g+MlJUWpGR+yQ/RyY5SChnIb4dSDcJrfLfNBGRGrTt6amRa/hIBpw+7M7U/uRY/+Laj/wA0H3Znan9yLH/xbUf+aG5QAGmv7sztT+5Fj/4tqP8AzQ/bPRl9qdbqEdR6wnN5RFuIp1R3lcfaL+yT4/8AANyIANQH3ZvaHpP9k3Hge1W4yuwQe5Ojdn2y7Ja1EfESuLTX/QNqGHr3kZMxJZGSJcNuI/dduU2uOR2zM0MrlRm3jQkz49CNeha+wML+jV8li1ucCD5OqIyq2TuSxhvm/t7ycwAqo1tZ+6KflXGme7owrYOB6dcK7YnOxDd6akvPykpShROE20jsCLU9e68HGWnHslGqvAX7slkf87/sGgD7rJtT+KH+j1HzYfdZNqfxQ/0eo+bG06XLiwIzs2dJajx2EG4686skIbSXGalKPiIi9kxx3a5RWKkzR36vCbnySJTMVchBPOFoo9UoM94+JtZ8RdpCvYMBq5+6ybU/ih/o9R82H3WTan8UP9HqPmxtMhT4NSZORTprEppLi2TWy4S0k4hRpWnUj01SpJpMu2RkZHxkOFcV2WtaEI6ndly0qiQy4zkVGY3GbLskp7pwyLulJL8aiLwkA1gfdZNqfxQ/0eo+bD7rJtT+KH+j1HzY2mwZ0Kpw2ahTZjEuLIQTjL7DhONuIPjJSVFqRkfskP0cmOUgoZyG+HUg3Ca3y3zQRkRq07empkWv4SAasPusm1P4of6PUfNh91k2p/FD/R6j5sbVAAaq/usm1P4of6PUfNin7IXRJ8kbRW0HCwnemK6LafCw5kh5ROyDlE4y0ayaJDmm6Z9s9SPiSfFx6lsFGqvAX7slkf8AO/7BoBtUErpe1Xsz1mbJp1Oz5YLsmGZk+2dwRUGgyPQyPeWXhLQVQaKdj7YzsTarzplSyrxumvUiLaj778Z2mGyTjpnMW3ovhEKLTQteIi4wG5brhMBe7hj/AOU0LzgdcJgL3cMf/KaF5wYVfcS8Be6vkD+VC8wH3EvAXur5A/lQvMAM1euEwF7uGP8A5TQvOB1wmAvdwx/8poXnBhV9xLwF7q+QP5ULzAfcS8Be6vkD+VC8wAzV64TAXu4Y/wDlNC84HXCYC93DH/ymhecGFX3EvAXur5A/lQvMB9xLwF7q+QP5ULzADNXrhMBe7hj/AOU0LzgdcJgL3cMf/KaF5wYVfcS8Be6vkD+VC8wH3EvAXur5A/lQvMAM1euEwF7uGP8A5TQvOB1wmAvdwx/8poXnBhV9xLwF7q+QP5ULzAfcS8Be6vkD+VC8wAzJre03s625TW6zWc42NHgOv9Kpk+rsZbZvbpq3N5KzIlbpGeh+AhRYM2JU4Ueo0+S3IiymkPsPNq3kONqIjSpJ+EjIyMjGmPohGyBZGyDgm07bsm5q5WWLgu1+c+5VTZNba0Q9wiTwSElpp7Oo28Yn71lm/B+nfVmwDLHesvL4P1H6s4MAOghd6vJfwgifVjGf+WO9ZeXwfqP1ZwYAdBC71eS/hBE+rGA2VCVbJ3JYw3zf295OYFVEq2TuSxhvm/t7ycwAqolWG++LnbnAh/ZWgiqiVYb74uducCH9laCAqoAACVW5yp8h839m+UbjALc5U+Q+b+zfKNxgAqoAAAAAAAAAAAAAAAAAAAAAAAAAAAAAAlW0t3uqRzgWJ9qqWKqJVtLd7qkc4FifaqlgKqJVcfKnx5zf3l5RtwVUSq4+VPjzm/vLyjbgCqgAAAAAAAAAAAAAAAAAAAAAAAlVucqfIfN/ZvlG4xVRKrc5U+Q+b+zfKNxgKqAAAAAAA+UiTHiNG/LkNstkZJNbiySkjMyIi1P2TMiL8Jj6jy1+Uq6q5GiUqgs0lUJ6Qyue5LkONOtJbfacJTRJbWTh7qFluqNHGaeyLjAepARx3GuU6vDVDrNytxijU4oUZcKvzSW88iNJbTIcNLbZpUbjzKzSRr0Nsj1UaUhHsDIcW+3ERKtLOkMqgyWJT9emq4BCZKlvtE0olJfUtKTSrfUW6ladDPtEFMbvC0nrjds5q6aQuvstE87SkzmjmIbMiMlqZ3t8k6GR6mWnGQ7cSC6MXX5V7wqFXpFXiwYsicqfFfOpOGphZ07pUj6W4Dd3yUZmSyeIyLQ9NS3T+0DHuS2qxTaiqvMxIMSpdNP01NdmykvRjQyjgDdcQlRkS21v6mXGr713C1qAVkAAAAAABhr0WzkW3D+WKV9ZSMyhhr0WzkW3D+WKV9ZSA9/0PDkW4q/I7n1l4ZFjHToeHItxV+R3PrLwyLAAAfGbNh02G/UajLZixYrSnn33nCQ202kjNS1KPiSkiIzMz4iIgH2ASZraTs2rp6Ysq0r8u2CfcVGjWvLXBeL+EzIdS20+n+/aUtP4e2Pp1ff/ANlcq/Jz/wD0AVUSrMnfFwTzgTPsrXg6vv8A+yuVfk5//oJrljNvTl+YYkdSPJTHSN8SpHBvUDdW/rbdab3Gi4Tsllwm+ZcXYIWfg0AZPgJV1ff/ANlcq/Jz/wD0EQ2wtrLIuNMNvZGxnaF3W1UrdqMWS/65raT6m1GMtfBLiur4Tfb3jcSolNmlWrZJ1IlGYDL2dCi1KDIp01lLseU0th5tXaWhRGSiP8ZGYj8nEF8vR4FaOsUl656TKN+HKeW5we4y0TMZKjJG92aCcNzQuJUhzd3i0M/E7FG2fM2tbdfmVHDty2rKgMmp6pqZN2iS1pWlCkR5Rkkzd1PeNo0maU/v1dsZOgJe3i246VjhFnW3X0wJzVTkyESm33W96PIfd4U1GkteF4J5ay4jInSSevFvDiwsdZEixKdUanU6ZWq1TX2HEHJnPttLSl1XCFvm0tSNW0x+0kyNaV66a6itAAjzWMskNPdMxa1Cp7k6Yc91MSqyktUxxcxb7yWmibSiUTiFpQZuE3xkZ6ceg/MfF+Rk1GlVZuusQXaex0u+yVbmTSmbxMkbi3HWyWndNC3CbT2ClpSS9d9RlYwAS3HuN71oVbiVS7LnmzWYkVxso/q9JlIXIUmOnhTSptsj14N7sV72hq3i41q0qQAAAAAMAOjV8li1ucCD5OqIyq2TuSxhvm/t7ycwMVejV8li1ucCD5OqIyq2TuSxhvm/t7ycwAqo1V4C/dksj/nf9g0Nqg1V4C/dksj/AJ3/AGDQDabOhRalBkU6ayl2PKaWw82rtLQojJRH+MjMR+TiC+Xo8CtHWKS9c9JlG/DlPLc4PcZaJmMlRkje7NBOG5oXEqQ5u7xaGdnABL28W3HSscIs626+mBOaqcmQiU2+63vR5D7vCmo0lrwvBPLWXEZE6ST14t4cWFjrIkWJTqjU6nTK1Wqa+w4g5M59tpaUuq4Qt82lqRq2mP2kmRrSvXTXUVoAEeaxlkhp7pmLWoVPcnTDnupiVWUlqmOLmLfeS00TaUSicQtKDNwm+MjPTj0H5j4vyMmo0qrN11iC7T2Ol32SrcyaUzeJkjcW462S07poW4TaewUtKSXrvqMu/pu0DiKr3ovHlPu3hrgbqD1KVD6QlJ0lNb/CN8IbZI4uDXx72h6cRnqQogvrt128c8Yyx271u9mbdUTicTic4nw9qW49xvetCrcSqXZc82azEiuNlH9XpMpC5Ckx08KaVNtkevBvdive0NW8XGtWlSABYyA1V4C/dksj/nf9g0Nqg1V4C/dksj/nf9g0A2qDVX0JvlT59/jvKLg2qDVX0JvlT59/jvKLgDaoAAAAOpl3ba0Co+pE646bHnapLpZ2UhLmqt3dLdM9dT3k8X98XshFu21p1S9RoVxU1+fq4npZuUhTuqD0WW6R66p04y8ADtgHmoeR7KlI+/XHT4TxE8pUeXKbbdQho3CUo0mriLRpxWv8FJn4D0+8O/rHqD7MWDd9GkPSHTjtNtzW1KW6RmRoIiPXe1Iy07epGXgAd8AAAAAANavRve9XjT4QS/qxDP8AxP3rLN+D9O+rNjADo3verxp8IJf1Yhn/AIn71lm/B+nfVmwDLHesvL4P1H6s4MAOghd6vJfwgifVjGf+WO9ZeXwfqP1ZwYAdBC71eS/hBE+rGA2VCVbJ3JYw3zf295OYFVEq2TuSxhvm/t7ycwAqolWG++LnbnAh/ZWgiqiVYb74uducCH9laCAqoAACVW5yp8h839m+UbjALc5U+Q+b+zfKNxgAqoAAAAAAAAAAAAAAAAAAAAAAAAAAAAAAlW0t3uqRzgWJ9qqWKqJVtLd7qkc4FifaqlgKqJVcfKnx5zf3l5RtwVUSq4+VPjzm/vLyjbgCqgAAAAAAAAAAAAAAAAAAAAAAAlVucqfIfN/ZvlG4xVRKrc5U+Q+b+zfKNxgKqAAAAAAPlJYTKjuxlrcQl1BoNTThoWRGWmqVJMjSfsGR6kIrT8fXvSZFJKBQVuzaexGbp9RlzUOt09Lbkk3m3FG4byidSpklGgl7+pbxluai3j+KIzSZJVumZcR+wAl9qW/kmjWdV7fXAYZq86oSpDU5VXN5o0LW2a1m7wZOIcWSnTRoypKDSWpEW6k/P2rY970J23ZNSs55ybSosRDb8aosP9KMNIfJ6Klx1aFqU6Zta8W4o1JNSi3NS+01F/wI8SLJqF2Tn2ZdVOFIQw7vPyiqCSjHJ4BCWyZNg16EtJM7up/vUmXuqvJqfrqodfiza36jNxpyJkFuEvgzUlOqXFtk3wyl6pMkFroevYpMzIwEvuDGl+1Cu12UzRZZRKtLUqocGqCpUyL020ptCOFWZPGTBL1TJTuJ0NCSNCjSrurltK8qvZFt0orVnqn0Ro1ojpOmux1SCZ0ZJ9uSpaTaTqaV8GZLSf8Aa9S0UXdWxOr7V6z1VZNxqZeXOamE7FlHFTrLbTAOP2JoL7wpW+priLjN0yMtS77HFKmwoVSqEx2sJTPnvHGiVKZIkLjR21G23ob6lKLfJPCnx/8AtCLtEQD7W1bs2kXXcVVfS+bVWRDcJbktbyeFQlwnEtpUozbQWqdEkSU8epFqZmPUgAAAAADDXotnItuH8sUr6ykZlDDXotnItuH8sUr6ykB7/oeHItxV+R3PrLwyLGOnQ8ORbir8jufWXhkWACRZehtXxkvHmI6kRO0Oemp3VWYiuNufHphxW2ozqT4lNHKqEV1ST4lcAST1SaiOuiVXHyp8ec395eUbcAVQiIi0ItCIf0AABKsyd8XBPOBM+yteFVEqzJ3xcE84Ez7K14BVR5HJGJcdZfptOouTLUh3FTaXUG6oxBm7y4ypKELQhTjWu48kicV2DhKTqeumpEPXAA+MKFDpsRmn06IzFixm0tMsMtkhtpCS0SlKS4kkRFoRFxEPsAhm0TnS37UoFax5T26vIuG4LXkv0yTTVNE20b7bzTDhum6k09mgzJSSPQi1IZrFi5qbkWrVM1VT3RGZ+ENbV6uxobM39TXFNMd8zERvtG87bztHrNoHahiYHuClUB+z11hdUhrmE4U/pckEle5u6cEvX2fAMU9ojaRhZ2pVuRvWe1S26ZPU6rhJxyN81GlO4ZcCki7ky11PtiXTqXkeuTm5lwJrFSNtjgkLl1RL6k9o9CNTp6Frqf8AhHX0+1ryNTJSabMeYZdLsSnNKJJE4WqSLhOI90jL8Ymej4DOnmmqu3VNUZ3xVhyninbGrX0102rtNNurG01UZjbff2x4tkGyLu9bvaO4REncmaEXaIunHx6fJ+X7YxR6jncbUtxNXkLb1jN75sMoIjcfUnXVSEGpsjJOqj3+IlaaDXzgu6MhY7yLQqvWpFxOWzSp77j9Oi1RC0cEttzRJMm8SD7NZK0P8fbFi2g810TKj9vM2va1YanwHnWGkTVMk5J6Y3Ek0220teqlONs6GpSf3xaHqRl5tvs/fua2Kb9FUW5zM1YmIiN++dtkgu9s9JZ4VVXprlE36YiKaJqiZqnbpFM536R62bEaTHmR2pkR9DzD6EuNONqJSVoUWpKIy7ZGR66j6jFbAWHs/wBv3dT5N3XvVKNQaM02S6K5XVTlPspQpDTSWN9xllrse6IyVogySRH2ScqR4Or09OmueTouRXHjTnH5xCYcN1tzX2IvXbNVqZ+7XjPt2mfz39QAANZvsAOjV8li1ucCD5OqIyq2TuSxhvm/t7ycwMVejV8li1ucCD5OqIyq2TuSxhvm/t7ycwAqo1V4C/dksj/nf9g0Nqg1V4C/dksj/nf9g0A2qAJnQto/DNfylXcKsXrGhXtQJCI79GqTa4UiQa2kupXGS8SemEGlepKb3tSLeLVJpUfd3pkVq1JJU1q2bmqMh2M84mRAocqVGZWlJGhLi20H3Rnp2O9poe9u8WtYjKkzjq+N/ZpxljCdFpt9XQimSZrSn2Gzivumtsj0NX3tCiLj9ka8KbtT7RqkxlzsjVJKXdSM1xWEkfEenHwfb4i4vx8Q+eRsuy84VCl1m/KnwU2FDXHSqn0h1DKUqVqaT1NRmfGfGXEPGToNpMsx2E1OrSCS7vfeacvVOuuqlbxEWnGfEXH+ATjh/Z7yFvnvRTMz1iZpmI37vc5DxrtpOsv+S0k1U0x0mIqiZ23z06T0ewwtfyKJnKk3/fdVcZp516RPqM9cY1Epx1l81OK4NBnqa1nxEXaPtacY2V2LkKzsl0ZdwWRWkVOA3IVFW8llxvddSlKjSaXEpV2lpPteEapZ8C0maccZFUq0lLryVqQzTl7/AHJp1PeIiIiJR/h/GKvjPaCquHbQk2vaVxk1CkylzjU7RXFyCdUhCTJJqTu9psuI0n2zDiXZ+9qpiq1MZiIjHNGMbruAdstNw6mqjURVNNUzOYpqmeb0Yx+U7z3sk7K2oukb8uKjZTqcCn0Rc6YmlylI3DiGy6aExlbuvCbyEmvePjJaVlxkpKUXq1rwtW96adYtC4YFYhE4bSnob6XUocIiM0K0PsVERke6eh8ZeyMDsa2SzmKnVrJF6vX30m7LU5HRQ7eW/JqcpalLkq1Jg2G+yMi1LdTvmvXTd481MQWpaFnWNCpdl0Wo02E6ZyHW6kw61McfURb63idIlGviIu1ukSSJOiSIi8LjNjQ2K4p00zzxiKoj7OYiM4nOZ39XimHZfV8X1lubmupjyUzVNEzOLkxNU8vNTEYiMf8AlM4w9qNVeAv3ZLI/53/YNDaoNVeAv3ZLI/53/YNDw0tbVBqr6E3yp8+/x3lFwbVBqr6E3yp8+/x3lFwBtUAAAeEu3F0SvVCp3BEnyUVCfAXC4DfbYjr1bNtKnFttcM5ub2+klLURKIjIknxl9rexXSLcrMCuxKtUemIUJuGttJMoRK3W9zfeUlsnXT1M16LWpJKPUiIx7UAE1q2EKPLhTY8KuVVCZLj0xMVxxrgDmracbS8oya4TVKXNCIlbvYpM0meuvztfDj8OfHuW5LoqL9bRPdnOuMHGLhCUtJkyt5EZtakaISSkoJtKtONJ9s6cAAAAAAAANavRve9XjT4QS/qxDP8AxP3rLN+D9O+rNjADo3verxp8IJf1Yhn/AIn71lm/B+nfVmwDLHesvL4P1H6s4MAOghd6vJfwgifVjGf+WO9ZeXwfqP1ZwYAdBC71eS/hBE+rGA2VCVbJ3JYw3zf295OYFVEq2TuSxhvm/t7ycwAqolWG++LnbnAh/ZWgiqiVYb74uducCH9laCAqoAACVW5yp8h839m+UbjALc5U+Q+b+zfKNxgAqoAAAAAAAAAADz165BsjHFKTW77umm0OGtwmWlzH0oN50+020nunFmfESEEaj8BGPEJzjcNe7LHmCL+rsZXGioVCPHocVReA92e61K0PwGUcy0/wahWAEq9e+0Srs0YDt4kfwV30ROf6ChGnX/tD8nl/JFI7K7Nm+8m2S7uVQ6hTao0j8bZSG5Cv+wyoBVwE+tXPeKLvrDdswrrTTbgdLsKFXIr1Jqa/Z3YktDbqyI9C3kJNPGXHxlrQQAAAAAAAAAAASraW73VI5wLE+1VLFVEq2lu91SOcCxPtVSwFVEquPlT485v7y8o24KqJVcfKnx5zf3l5RtwBVQAAAAAAAAAAAAAAAAAAAAAAASq3OVPkPm/s3yjcYqolVucqfIfN/ZvlG4wFVAAAAAdRUrvtOjSjhVi6KTBkEklGzJmtNLIj7R7qlEegsuXaLUc1yYiPXsyW7Vd6eW3TMz6oy7cB57qiY/8Ab1b3xmx/WDqiY/8Ab1b3xmx/WGDz3TfiU/GPqzeY6r8Kr/bP0ehAee6omP8A29W98Zsf1g6omP8A29W98Zsf1g89034lPxj6nmOq/Cq/2z9HoQHnuqJj/wBvVvfGbH9YOqJj/wBvVvfGbH9YPPdN+JT8Y+p5jqvwqv8AbP0ehAee6omP/b1b3xmx/WDqiY/9vVvfGbH9YPPdN+JT8Y+p5jqvwqv9s/R6EB1FNu+06zKKFR7opM6QaTUTMaa06syLtnupUZ6Dtxnt3aLsc1uYmPVuw3LVdmeW5TMT64wDDXotnItuH8sUr6ykZlDDXotnItuH8sUr6ykXsb3/AEPDkW4q/I7n1l4ZFjHToeHItxV+R3PrLwyLABKrj5U+POb+8vKNuCqiVXHyp8ec395eUbcAVUAAAEqzJ3xcE84Ez7K14VUSrMnfFwTzgTPsrXgFVAAAcOrUmnV2nvUqrRUyYchJoeZWZ7riT7aVEXbI/CR8RjDjbJ2dqTSKNQrwx1Z8dimU/wD/AA2pQILJkhCFr+8uE2niJO+taVH7K0eDUyzTHQXDddu0qtUKz61q5Ju12TDhMGzvtum1HW86S/ASeDbV2+2ZkQ2tFq69Ffpv0RmY7p6T4/k87ivDrXFdJXpLszEVd8bTE5iYmJ9sQ1mx8Q3oxSHqvUbQqUOjwSI5RukbPBt6kRnuH2W6WvGZIVoWp6HoY8nIgUOnSpLVJSTcQ3VcGZHumtGvEZ6aanpp4C/ENmdUwhSVocZtuuzaVFcSpB09xtEuESVcRkSHC30p04iQlwkEXESdBIHdgOzJ1UXOn3lNjx3XDUqLTIZMJSkz7SDdW6af8OpewRFxCb6LtVpapmrV0YmOmI/vf34cl4p+zniNFMUcOuzVEz6XNVvn3YjHtjOe+e7BnSmwjWuBFQ0peprWjsdfwnp2xl1sobJ77lSYyxlGjKZ3Eb9Ip8jfQ+a/BIdLiNJEXcJPj1Pe0LRJqsOGcG7P9sV2sN2nQnqpXrSqCIEudWNXnWpBstvpU2RkTRGSXU9mhCVa6lqLoPK4z2jp1ludPpLfLTPWZiMz8OiSdluw1zhV6NbxC9Ny5HSImZpj1zM9fVGIiPXtjzFCxlYNsVmRcVvWrAp9TlkSZMuOjcdfIu0TiiPVZFrxb2o9OACJ5y6NERHQAABVgB0avksWtzgQfJ1RGVWydyWMN839veTmBir0avksWtzgQfJ1RGVWydyWMN839veTmAHXyn7yzTe9w2/RLwqNq2NaUsqRMk0c0N1GtVIm0OPtokLSo48dknG0GpoicW7whEtCWzJeubCWNbfqnRYL+sWZVLq9T4vqpuyY91VONUVmllsyNc5mQiUvUz4yNwyPiI9SIiGynZr7PH9bkL0N12/744RXhVuXNUm06/iQhKfxJIYAYC/dksj/AJ3/AGDQCjXz0LeXmraKrOQshX1U6JZEFceLRoka4qhW6zPYbaSZuOzqitxcfVZq0QW+SdDSktNHF5+27Q4dsW/TLap7sp2LSYbMFhcuSuQ+ptpBISbjqzNbizJJarUZqUepmZmY7ET69s744sKuKtus1CoyaoywmTJi0ulSqguIyruXHiYbXwRHoZlvaGZFqRaCsRM9FJmKd5Yr5V2TDte9qlVYleKl2lUXTkxX1QuEZgmozNTDqkqImkp/eKURJNJpTvb3Ec8ypjeXjOkRygKbrdHmpJa6qUIkLae1LsNSWrdSZJLdPXj3lkMvbN2obNqFnyrxumqxkxplz1SjW81SociS/U40d0yacbZQS3FqNvdWpRJJJbxcSdSH3gV/ZduW1K7fblFteNTqIs011VQoiYkiKv8AgSWXG0u6q1IiSpJ75mRESjEn0faXV6eaKb/pU0923d0365j+4c94r2A4ZrvKXNJi3crzOd9s9ds4xPhiPVMNcKqgpxSW4zJqWtRJSR8ZmZ8RERF4RcMP7JuQL9cK5r2o1So9uxkG+bKmybqFRJJa8DHacNO5vaaE45up7IjLeLXTI2dlTFln4+uS8sO43h0erUNqG+TU20XqSh1mRJQ1vpM22jWkyUrTdV4C1LQUeXnzFEOhVS5l3Uh2mUqpFR1SWI7ryZM0yI+AjbiTOSvj00a3tDIyPtHpt6/tfqdRRNvT0cme/OZ920Y/NocG/Zlw/Q3Yvay55XG+MYp9+8zMfCPGHm7eyhMtWhwbct7ZiyjDp1OYTHjMIj0rRCElxcZz9TPwmZ6mZmZmZmZjserfc/g2bcqn/E0j0gO6s/NuO70Yqy4dWkUuRQGSk1WHWobtOkwmTSaidcbfSkyb0Iz3y1TxdsdpYGRrWydSHa/Z782TTm3zYRJfgPxkPmSSVvtcKhJuIMlFotOpHx8YhsxPWXUKZpiIil5Hq3XT4NmvKp/xdG9IjWthK96tC6LBf11s4zuqbMkequ9QY5QvVFneZbI9/fkpY4tNT0dPtlpqNvw1V4C/dksj/nf9g0KLmf8A1bLu8GzLlU/iP0kNavQyL2rNtbSWbalTcYXXcrs3heEhUk4BPxP7PcP770zKaR2z3ewUvjL2OMbfxqr6E3yp8+/x3lFwBn/1ar08GzBlU/4ygelA6tV7eDZdyqf8db3pUVUAEq6tN8+DZbyqf+MW76VDq0X34NljKp/41bfpYVUAEq6s9/eDZVyqf+OW16XDqzZB8GyllU/8etj0wKqACVdWXIfg2UMqn+cLW9MDlWPkK5rmyzcdq1igy6FCp9n25W2qXP6XVMiypsystPpdcjuutK7CBH0JDikl2XHxmKWJVbnKnyHzf2b5RuMBVQAAGtXo3verxp8IJf1Yhn/ifvWWb8H6d9WbGAHRve9XjT4QS/qxDP8AxP3rLN+D9O+rNgGWO9ZeXwfqP1ZwYAdBC71eS/hBE+rGM/8ALHesvL4P1H6s4MAOghd6vJfwgifVjAbKhKtk7ksYb5v7e8nMCqiVbJ3JYw3zf295OYAVUSrDffFztzgQ/srQRVRKsN98XO3OBD+ytBAVUAABKrc5U+Q+b+zfKNxgFucqfIfN/ZvlG4wAVUAAAAB4K7M8Yfsmqqt+4L/paa0ktTpENaptR09npSOS3v8A7AHvRN8pZGuKkVWm43xlTIlUvmvNKkMlLNXSVHgpVuuVCZumSjbJR7rbSTJTznYpNKSccb4PXEUKT2VHxnlSotn2llY9RiEf4SKW20f/AHDnYXs6v0mLXb7vuB0reF61Fc+pMG6h04MVs1NwYBLQpSDJiOSSUaDNKnnH1l/bDAfew8LW1Z9WXeVYlSrqvWUgylXLWN12WRGWimoydNyGwf8A8FgkI8Kt5WqjoIAAAAAOluyy7QvyjuW/e1sUuvU13jVFqMREhrXwKJKyMiMvAZcZeAThWM8kYuM52F7rerNHb43LNumc7IZ3C1M0wagvfkRVdokodN5kiIkpS0XZFYQATOibQ+MZdDnVO8K9HsWfRdxNbpN0yWYEulrURmknd5e4tCtD3HW1LbcIj3FK0PTiFtHWpVeOxbLv68UH3L9JtmS3FX7yVLJmO4X4UOGX4R76o2ZZ9Xr9PuyrWpRptbpKFtQKlIgNOSoiFGRqS06pJrbIzSkzJJlqZF7A7kBKurRfZdmvZYyqlr/4nTVtnxe8KrGv/wC3Ufk9pGyqX/04ti+bNSXdP1q15hRG/fzGEOxkf9p0vwdoVcAHU2xdlq3tR2bhsy5aVXqVI/tM6mTG5Udz3rjZmk+2XaMdsJtdmBLHr1Xdu+2+m7Lu9fZFcNuLTElOqLXTplGhszUEZ/2uS24n2CI9DLg2vku67WuuHjHNcWGxUako2rfuaCg2qbX1pSajZNtRmcSYSUmo2FKUlZEpTS1aKQgKuJVtLd7qkc4FifaqliqiVbS3e6pHOBYn2qpYCqiVXHyp8ec395eUbcFVEquPlT485v7y8o24AqoAAAAAAAAAAAAAAxEldEKoiEawsYTnV8fE7VENl+DjJtX0Dwlx7auab5Uqi2Fb0SjrfPRJwo65kvQ+LQlKI0/4Sb19gyEms9keK3J9OiKI8ZmMflMz+SKX+2nCLUehcmufCmmc/nER+bN0rytY7qOxyrsT1eKL06cDhPvvA66b2n+7t6cemnGO5GsOv48yjbJQMg1OtzW7onSXZW8UpRzEGkkffDeI9eEM1Hxa66F29eIUK0duPLNqNop16USBcCGS0Nx9CokoyLwGtBbn+Hg9fZMxu6jsfdroivQXIueMdN+/Hdj3/FoabttaouTb4jam14T127s98T7I+DPoBhzH6JFaZt/2bjGqtuEehkzUG3E/4FGlJ/8AcMxhHuI8H1vCuXzy3y82cbxOcYz0mfGEn4bxnQ8X5p0Vzn5cZ2mMZzjrEeEglVucqfIfN/ZvlG4xVRKrc5U+Q+b+zfKNxjzXpqqAAADEzaPJJ5PeJajJJxI+pkWuhaGMsxiXtI981/8A6nH+gxCu3v8ApUf1x8pTn9n3+rT/AEVfOHTXVb1o0Ci2hW6Ucypxamcl2Wp7+xlyEtPEg0EkjWTfESiIy3u3r+Ac6sUnHvreoNTdo06gOVmdrqc45ZogIPdcd3dxOhmozJJaHrumY89cFxU+p2datCjE6UmjNzEyTUkiSZuvmtO6evHxHx9rjHNui47buG8aS6aJSbep0eFB3Nwid6XaSnhCIiPTUzNzTj8Oo5zXe00TXNEUYmLcRGIxEzTTzTn7URExMTv1nPV0uixqZiiLk15ibszOZzNMVVcsYj0ZmYmJjMdIxGzkXbQrXVZse7KFS5NM4arPQIzb0hTnTkZKN7hy3iIyMj0SenFqf4BxLJt+2q1SbgkVKVKVUYFLky40ZDWjXYJTo4pze1M9TMtzd08OvgHZ3rW7GuesxJ/rgrS4aJCGChJp7bKIUEtexZ0cUWpdiWmha6mZjobYrlKoMi4CX0wpmoUqXAinukat5Zp3DVx8XEXHoKXvN6dbFUxRNGMbYxM4+1imcRmekfHdWx5zVoZpia4rznfOYjP2c1RmcR1n4YjD2Fk46p0+1abXZtq1Sveqr8lLxwZKW1w2WtEkaEmZE44pRmZEZmRkg+Lwjx9i2vFuu+IFtvvPMxX318KsyJLhNNpUtXFxkSt1B+zofsj0do3zbsOl203XJM+O/aU+RNZajME4malw0qJBqNRbiiUky1MjLdUfh4h11BvCh0G66Te7bMt2aqbLeqsXdQTSWnTNJJaPi1PcWvUj0LUi7QzVRoKvNpzEUxNPP0zMehzdIz15tpzOImYxDDTPEKfOYxM1TFXJ1xE5r5es4+zy7xERmYicy+d2Ue3X7VpV5W3THqa1LlyIMiI5IN4krbJKkKSoy140q4/wlxD0Fq2NaUyBbFJq8SS5UrvblLamJkGlMI0KUlrRBFoveNPZa+zxDpp9asxVJo9msz6m/SYkuVOlyyjJbdNbiCS2lCDUZcW6WpmfHvHp2uPsLZv23IES2ajVjmeqNpJlIYjtskpEwlmpbWq94tzdUoyVxHqRFpxi7Tzo41c13eTE00Z6cuc0c+Ijb7PNjHfnl3ws1EaydJFFrnzFVcx15sTFfJmZ3+1y5z3Y5tsuVs5NrZyi204Wi0RJCVF7BkRajLIYm7OTi3cotOuK1UuJIUo/ZMyIZZCf9g8fuucfz1fKHO/2gZ/e0Z/kp+cgw16LZyLbh/LFK+spGZQw16LZyLbh/LFK+spE1Qd7/oeHItxV+R3PrLwyLGOnQ8ORbir8jufWXhkWACX3DFdXtOWDNJTXBtWHd7SiN1BL3l1C3jLRBnvKLsFaqIjIj3SMyNSdfe3Dc9tWjTXazddw0yi09kjU5LqEtuMygi7ZqW4ZJIvxmJfjSe7lbKVRzREgTI1r0yjqtq13pbCmV1NLr6H505tCyJRR1qYiNtGoi3+AWstULQZhYwAAASrMnfFwTzgTPsrXhVRKsyd8XBPOBM+yteAVUAABINp+rzaTYtISutzaNb8+46fBuapQ3FNuxKS4pROq4RPZNJUsmm1LIyNKXFGInelpWJaeUbUmbNExdRrdKolxVd6mU6qO1KI2v1JfbhyHEqWskLW+622njI1krtHpqMxpMaPMjuRJkdt9h5BtuNOIJSFpMtDIyPiMjLwGOrtuy7Os1p9m0LTo1Dbkr4R9FNgNRkur/hKJtJbx8fbMX014hiqt805Yiy2sUUHEVvZQxnfs2o5YmLgFDk+rj79Qq9UccbJ+LJircMjSozWlaDQW4ktfBx+uodJxHet6ZCqOfrmabuWjXPIiQ4tSr7tN9TKUhaTgORkodb3EuINC+FTxqUo+PwDIiFYVjU6vvXXT7MoUWtyN43qkzTmUSnNddd50k7566nrqfhH8rdgWJc1SjVi5LKoNWnw9OlpU6msvvM6HqW4taTUnQ+PiMV51ItTDFy2ZNMk7Wt80e7LmqUKG3cDM63KWaVMU+qVpFPj8Tz6e7cbQTSkMq4jNe8WplofhLVXRcpvUalRK3LpWWZFQbXdF6VqqvQ3aLOOQovU2DGN1BPOnu8GlhCeCJOm9qriLOh21rYfdW8/blLcccmt1Ja1w2zUqY2SUtyDMy43UklJEvuiJJER8RDjvWLZMi4m7wkWdQ3a80RE3VF09lUtBEWnE8ad8uLi7Yr5SFPIylFn21GyVma9bivabOqPrCrUKm29D6acaiw1IiMPrkcE2okuOrcePU1kehJIiIiFzHGiUymwHpUmDT40Z2e70xKcaaShT7u6lG+syLVSt1CU6nqeiSLtEQ5IxzOWWmnlAABRcwA6NXyWLW5wIPk6ojKrZO5LGG+b+3vJzAxV6NXyWLW5wIPk6ojKrZO5LGG+b+3vJzABs097qr84F9/aqqDADAX7slkf87/sGhn/s097qr84F9/aqqDADAX7slkf87/sGgG1QRh5/IONMl3xWKbiOddlLvCRDqMOdR5kRt9p9qExFONJTIdbNKCNg1pWneIuFVxa6izgKxOFtUZYt2jibJ2Kq7b2VysaLcE2S5XV1u3aXJZQ5SE1KUiSlUNTykNuqbJsmlFvJ1JRkneLjH0u7FmUcm1a5cqeslqhy23qA7R7YqEtg3KwimSlyVdOqaUtptbnCG0js1ERJIlaFxi9SclWPFZmv+uBmQmnTjpskojbklTckmycU3utJUZmlB7ytCMkESjVpunpzKpeNt0d+nx6hU0oVUzLpY0NrcQaTNKSWpSCNLaDUtCSWsyTvLSWupkR3c89VnkoxhG8unkbN+FbyseNiG4LeqEyLDbjFUpcFRSHemW1Opb4J9XEhKd7eUaSUXa0PiHmapYmcKdaFm1C1sY0FFy4mnTIsCkMy0NUqtR3oimUzWCNZKbWk1kvcdNKtTc7IzMZGndlAK4StY55+qRp1JvgV7m9u7/B8Ju8Hwm52fB72/u9lpu8Y+lLuOlVmZMhU5clxcBxTLziobyGd9KjSpKHVJJDhpURkZIUehloegRXjbCs24mczLGl/El5XPhW+pNTs24peQ7mOLFkz66/DRJnxykMuLaZbZeW1FipInCJnf49NT3tSGU7bbbLaWmkJQhBElKUloSSLtEReAh+gFJqyrTRFPQGqvAX7slkf87/sGhtUGqvAX7slkf8AO/7BoWr21Qaq+hN8qfPv8d5RcG1Qaq+hN8qfPv8AHeUXAG1QfF6ZEjusMSJTLTkpZtsIWskqdWSTUaUkfdHupUeheAjPwD7Dz18UOp1yh6UByK3WYD7c6mrlKUlopDZ8SVmkjUSFpNaFGRGe6s9CMBzfXTbO5Pc9cVL3aUg3J6unG9IiSNRGp3j+9kRtrLVWnGhXsGPlVr0s6gVGn0eu3ZRqbPqxmVPiy57TL0sy0IyaQpRKc7ZdyR9shJq7gKuymp8KlVOm9LVmlIpdUVIUtK5ZIbNwlq3UGWpyTUav7x50+3oR+wvi0buqzshqhQqHKj1KgOUSSdQmusmzvq43EoSy4TpEk1HumpGpkRalrqQUIfJmTHkG4mPIbdNlZtuEhZK3FkRGaT07R6GR6H7JCTqxtkhmbqxcKX4jDizWS6/NaVUmzktLbQtKUGUXg2kKRq3v7+pkehKMcROKcmRznuQ7pQ03UXoz5xUViSnpfgzY4RtL5tGtzhCQveccI19ggu04skhaBKrc5U+Q+b+zfKNxj0ONLOrtqQ5qrlrcupTZbrRpU9U3phNNIjtI3CNaUJ130uHvEhJq1JSuyMx563OVPkPm/s3yjcYCqgAANavRve9XjT4QS/qxDP8AxP3rLN+D9O+rNjADo3verxp8IJf1Yhn/AIn71lm/B+nfVmwDLHesvL4P1H6s4MAOghd6vJfwgifVjGf+WO9ZeXwfqP1ZwYAdBC71eS/hBE+rGA2VCVbJ3JYw3zf295OYFVEq2TuSxhvm/t7ycwAqolWG++LnbnAh/ZWgiqiVYb74uducCH9laCAqoAACVW5yp8h839m+UbjALc5U+Q+b+zfKNxgAqo6K972tvHdrzrwu2odJ0ynoI3Fk2pxxxalEltpttJGpxxa1JQhCSNSlKSkiMzIh3okUuMWRtof1PqH32h4vpsWotRlcbb9cncKSHVJ8Ko0ZozR7Cppq7aEmQceNZ+R80pTV8n1CqWbachJKjWbS5hx577fgOpzWVb5Goj44sdSUJ13VuPcZFSbRsezLApSaHY9q0mgU9J69L06G3HQav4SiQRbyj8Kj1M+2ZjvAAAAAAAAAAAAAAAAAAAAAAB53IFh27ky0ahZl0R1uQZ6E6ONL3H4zyFEtqQysuNt5txKXELLjSpKTLtD0QAJ/g+8K9dlkHGvFxpd0W1UJVu15bTZIQ9Mir3OmEpLuUPt8FISnwJfSXgHVbS3e6pHOBYn2qpY/mJNDynmxUT/0Q7qpxLMu5OWVCpxO6fh3OAI/wl7I/u0t3uqRzgWJ9qqWAqolVx8qfHnN/eXlG3BVRKrj5U+POb+8vKNuAKqJ8/mm3Y7NamLo1XOFRnlxTlkUfgX30PpYU0SuG+8K4RRF/ZHAkZaqIzSRqKgjwUnEMCTW3riVd9wpqBtOsRZCVReFiNuOodNCXDY33UEaCIkPqdRumZGkwHIfyzbVPpr1QrkadSHI9Nfqi4s0mkOm2yoyUhBk4aHFHp2JoUpCiMjJRkY9hFkIlxmpTRGSHm0uJI+3oZalqPD0zDNq0yj1CjIkzXW6nCmQn1miO2ZJkrUtxaENtJbQrVR6bqCT4TIzMzP3EWOiJFZiNmo0MtpbSau2ZEWha/6AH1AAAAAAGu7ZSolGrB3QdXpEKdwPSPB9Mx0O7mvD66bxHproXa9ghknFhQ4LfAwojMdvt7rTZIL/AEEMedkH/wDVv+If+YGRg6Jx+qqdfcpztt/8w5l2copjhturG+//ANSl+bf/AHN/jP8AwxHao408k4qm0OJ/fbySMvxCs55k8AiipT3aumdPwf2sRvtj2OD0f4aiqfX85eTxir/FV0+z5QmuUoUOH6mdKRGWN/ht7g2yTrpuaa6fjMbfxqHy3/7q/j/+GNvA8nt3Mzp9HM/+z50va7AxEajWRH/r+VQJVbnKnyHzf2b5RuMVUSq3OVPkPm/s3yjcY5y6SqoAAAMeMz4Osi+b7k3DcOZityU6wy2UApLLe4hKdCUZLWRnrxnroX/dqMhxiZtHEk8oOktW6k4kfU9NdC0PjEY7W6u3o9BFy5biuOaIxMzEdJ32Srsfo7mt4hNq3cm3PLM5iImesbbuD1r2LPGSP/X43nA617FnjJH/AK/G84OFdVs2lb9HtGsU+XMqcWq9MOTHDT0up1LTxINKEnvbnFvERnr7OngHNqtBx0VBoVUJmq0U6zP3d6TKKTuQUHuuv7qGyPXePRJceu6oQedbZpqqpq0tqJpiJ+3V0qiJjf7P3ojqnkaG9NNFdOruzFU1RHoU9aZmJjH2vuzPTODrXsWeMkf+vxvOB1r2LPGSP/X43nBxLroFpes5i67ciTYKVVZ2nMokv8L04wlG90wnVKTSZHoRlppqr8A4ll23btcpFfl1Gov+qFOpsmXGiIaMknuJTo4pzX2VGW7p+HUWTxCzF+LEaS3MzGYnmqxMYz34n3YzPcvp4demxOonWXIiJxMctOYnOO7Me/OI73bda9izxkj/ANfjecDrXsWeMkf+vxvODmWXjqlz7Yp1dqVu1qslVH5KXDprqUqhMNaJJRJMj4RalGoyTrxkg+ITiPHguVFMaVNXHim4aVPmyalIRr3W4R8Z/g1Ft/iNrTUW669HR6fT0qvCJjecR0mOkzjvxK7T8Mu6mu5Rb1tz0Np9GnumYnaMz1iesRnuzD3fWvYs8ZI/9fjecDrXsWeMkf8Ar8bzg6XJFt0i1q3Fp9EfefjO02LKJ10tFOKcRvGrd/e69vd49O1qY9La1hWpOg2zTKu3MVU7uRKWxKbfJDcPcNSWiNG6fCbyk9lxloR8QyW9ZbuaivTRo7fNT19KrGZmKYjPrmYjw7523YrmiuWtNRqp1lzlq3j0ac4iJqmceqImfHuiM7O2sXZZwu9cLSK3fVFyPCNtfC0GsMxKhHd4uJw2VKWW8g9FEZpPT8HbFL607ZY8WnFXyNp3mRItnJtbWUWmnE6KREkJUXsGREMshOeyWro1mgm5btxbjmmMRMz3R4oF2v0dei4hFu5dm5PLE5mIjvnbZKutO2WPFpxV8jad5kYn9E+wFgqwNkeu3JYmFbDturs1WmNtz6RbkOHJQhUhJKSTrTaVERlxGWvGQ2CjDXotnItuH8sUr6ykSdFnz2EtnLZ6u/ZHxpcl2YIx3W6vPpS3JU+o2vBkyZC+mHS3nHXGjUs9CItTM+IiF5607ZY8WnFXyNp3mR4noeHItxV+R3PrLwyLATugbOez3atQbq1r4Jx5R5zSiU3JgWxBjuoMu0ZLQ0Rl/gMUQAAAAAASrMnfFwTzgTPsrXhVRKsyd8XBPOBM+yteAVUAAAAAAAAAAAAAAAAAAAGAHRq+Sxa3OBB8nVEZVbJ3JYw3zf295OYGKvRq+Sxa3OBB8nVEZS7LEqNB2T8QzZshqPHj48t91111ZIQ2hNNYNSlKPiIiIjMzPtAPrs097qr84F9/aqqDADAX7slkf87/ALBobBtm52VOxFTrglRSjlctTrNyR2+l0sGUWo1SVNj7yCItFGzIbNRmW8ajM1aqMzPXzgL92SyP+d/2DQDaoAAA8NXccTJ8+XVqRXo8KY/POY0b8A3220qglEWg0k4g1GZFvkolFofFoZa6/GpYynzSgsR7jjMxosNumOpVTzW47DbcaWlJK4UiS5q2ojXumkyWXYFu8fvwAeG6n9dK4Dr6blp5KVIKpG16lL0Of0l0rv68PrwO5org+61L+2acQ+lo45K1roqdyIl00iqJOktqDSyiKeU4+bvCyVktRPuJI91K91JkRr113uL2oAAAAANVeAv3ZLI/53/YNDaoNVeAv3ZLI/53/YNANqg1V9Cb5U+ff47yi4Nqg1V9Cb5U+ff47yi4A2qAAAADzGSsg0PFll1C+7kalu06mmwTyIjaVumbryGk7pKUku6cTrqZcWo15Z6zvXMh5KqNyY/uS56VRExI7SYip5xlJWhJksyQ26aeM/CR6noN3R6G7rKsUxiPHGzyOK8Z0/CaM3JiatvRzETMZxnHgzgy5tGWThitU+hXRSq5KkVKMuUyqAwytBJTvako1uoMj7A+0RihW3XYl0W7S7mp7bzcWrwmJzCHiInEtutktJKIjMiVootdDMtfCY1H1G4LmuiTCkTrhn1OQ0ypBuvzVKPTcUeiTWriLXePT2NfZ0Gf2zLtI2BkGl23i+iQ6y3V6XbrBPLkMNpYPpdpptzdUlxR90fFqkuL2Bt6/hk6SzRVTEzO+Z7u7HzeZwbtDTxPVXaK5imn0eWJmMzM82fb0ZCCVW5yp8h839m+UbjHgNo3LF844ydRJVCmuoplPpJTlwePgaga3nEvNrLtGZIabJCu2g16+EyP84fzpj7I21ZfEe3pk4np9jWyxEbkwXGze6VnV1by9dDJKSKSzpvmkzNWhFqRjUucP1FvT0aqac0VZ3juxMxifDo9WzxrRX9bd4fFcRdtzETE4iZzEVRNO+8b49vuzksAANJ6rWr0b3vV40+EEv6sQz/xP3rLN+D9O+rNjADo3verxp8IJf1Yhn/ifvWWb8H6d9WbAMsd6y8vg/UfqzgwA6CF3q8l/CCJ9WMZ/wCWO9ZeXwfqP1ZwYAdBC71eS/hBE+rGA2VCVbJ3JYw3zf295OYFVEq2TuSxhvm/t7ycwAqolWG++LnbnAh/ZWgiqiVYb74uducCH9laCAqoAACVW5yp8h839m+UbjALc5U+Q+b+zfKNxgAqoklGkJs7aSuOj1L73GyHRoVVpDyuJLs2AS2JkfXtbxMKhupLXVSeGMi0bMxWx5bI+O6Jky3k0OryJsJ+LJbqFNqUB3gplNmt68HJYXoZJWneUWhkaVJUtCkqQpSTD1ICP9UPLOMWFx8r2NIumkxUmZXVaLHCqNpJd3Lphq4dpehGZ9LdMIPt6I13S97jzIdnZWs6n39YNY9VKDVOF6Ul9LuscJwbq2nCNt1KVpMnG1pMlJLtAPRgAAA6G4rzpNsVW36RUm5BuXHNdgxnEEng2ltx3ZClOGai3U7jKy1Ij4zLi01Mu+E9ylatfuOvWRNo0Dphmj1SZJmq4VCOCbXTZTKVaKMjVq462nROp9lr2iMyDj17aOwjRLWue7WMnWxV4tnw0zawzS61EkPRkLLVolpJ0iQbnaRvmklH2jHoomUcazq1SraiZBttys1yEmpUympq0dUuZENJqJ9lol77jehGe+kjToR8YgsjBV7x8bUq3qVaDLU6LiOXbDzKJMdJ+qSzjqRH3t/Q9VJePf13CMzM1Frx8J7DeUahlZyqTIF9poleuak3WbLVRt1ql0440aOg25SlsP1HphCmFJJEZa2VpURcK2Sl6BepmbcMU5ifKqGXbLis0p4489x6vxEJiOkSjNt0zc0bURIWeitD0SfsGOZUsq4vo0WhTqvki1oMa6XG2qE9JrEdpFVWvTcTFUpZE+at5OhI3jPeLTtiWWrh2uQOpt6p2qwXrbvC4q7M3nmV9LFLKeTL5aKPeUopKOJOplvnqRaHpKrm2ectNUaPBgUq7lxKxbcu2JdKtudbzTbCF1GU8XTa6mw+TcZbb7ZmuGSnkmjjaWZI3Qyis/Ktk31c92WfbdZjSqpZc5un1VhEhlam3FtIcI91C1KJPZGjsySe+hZadjqPXiaYrtm47Wu6+mKvRpTcGozafMgVFclh1uUlFPjx1p7FROEtK2FbxqaQkyUk068ZJpYAAAADzGSL+peNbRl3RUmHpjqDRHgU6NocmpTXD3I8RhP7511w0oSXaLXU9EkZl6cTjL+G2Morolbp90VC3bmtZcp2iVKPq6yw5Ia4J3hY5qJLm83qklpU282Sl8E60alGYc3DNkVWxrHajXM+zIuWsypFcuB9rjbXUZThuvJQfhbb1Sy3/wDTaQOk2lu91SOcCxPtVSxNcf2DY9TuZ/F+S3cn25fMOOcpthvLd1Owa1ESZJVMp7qqgRrQSjSTjSiJ1k1JJRGlSHF/zaD2e7ApNh0uVFrORlrcviy4xlJyTcclG49clNaWZJdnKSSyStRpWRbyFElaDStKVEGUAlVx8qfHnN/eXlG3A62fGnhrOTD/AB5RuY//AD4mlf2eseNbSVi0ZNSv848qx7slOKXkS4VPEtqfQEoJLxzTcQnR5e8hKiSsyQaiUbaDSGUACVdbNjDw1HIh/jyXch/+eDrZsXeGbkE/x5IuM/8AzwCqgJV1suLPDJv0/wAeRbhP/wA6HWy4q8Lt8n+PIVwH/wCdAVUBKutkxR4TvY/x3/Xz/wDOh1smJvCi8j/HfldP/wA4AqoCVdbHiTwsXcf475rh/wDnA62LEXhiXWf472rZ/wDmwGv7Fq1ofqO4tSdUN66Hp4VD3kia4w2a1Or18Bbx8Zjwlcx+3s25QrlqSmJbVPN41NuPyXX+GiqMzZeSa1K/e8RkXhJRdsh6Fc1E8kyWnEraWRKbNJ6kaT7RkY7dXE6madR92qImJjePjiHB7P8Ahoq02/NRMxMTtPXwzPzVbCSUzl1tcxCXzLpbThC3tNeE7WvaFR9T4H9wx/5pP9Al2B//AH5/i3/FFTlSosGM7MmyGo7DKTW466skoQku2ZmfERCK8Tz53VFPq+UJnwqI8zomr1/OWMu2axGYOz0sMttmfqgaiQki1/8AR9NdP8Izqu+sZzhVlTFg46sWs0km0mmVWL0mU2Qa/wB8k2GqXJSRF4D4UzP2CGA01ybtS7QFEtW3I7jlCgukhTpp4kw0OEqRJUR9reLRKSPt/ey4jPQbNBpdrY830uj0lz7dMVzMeHNMTGfhLb7ITGo1et1lv/LqmiInx5YmJx8YSr1x7U/uN4q+cuo+gh5Sm0janp+U7hyZ1L8VOer1v0ahdJdUSolwPSEmpPcLwnqH2W/6pbu7ulu8Drqrf0TkAAhCdJV649qf3G8VfOXUfQQeuPan9xvFXzl1H0EKqACVeuPan9xvFXzl1H0EMeMu1DJ07JUw8iWha9EWUKPwRUW45FVJR6H3RvQYu7xewR/7xm4MeM0YHo2QL7kXHOzX623VsMtep5Ggtwkp03uN5Pb7faIRntZobnEeH+RtYzzRO848fGYSnshxC1w3iPl7uccsxtGe+PCJSa4Lip9Ts61aFGJ0pNGbmJkmpJEkzdfNad09ePiPj7XGOZdVx25cN20lW7LTb1NjQoG7uETvS7aS4XQiPtmZuGXHxmeo7PrULa8Zg/5Tf/MB1qFteMwf8pv/AJgQCrgHE64mKpo35PvU9KIxEfa6Y6+Mw6HT2h4XRMTTFe3Pj0autc80z9nrnp4Q/F71qx7lqkOSxcFYKC0+lhuCVObaagwuPUmiJwyNRaJ7ZFvGZmZjobXrlLoL9fJw31sz6TKgRjJBbxqWadw1FrxFoXH2x6HrULa8Zg/5Tf8AzAdahbXjMH/Kb/5gXXOA8SuX/OMURV1+1HhjvqlZa7QcMtWPNs3Jp6b0z457qIfa0L4t2HTLWRWZ82I/aVQky0NMMcIUxtw0qJOu8W6reSaePi3VdvwDxVdlUmo7tViuPpnzZEl6YwbZJZZJS9WybMj1PiM9dSLTQh6/rULa8Zg/5Tf/ADAdahbXjMH/ACm/+YFL3AeJ6i1FmvkxGPvU52imIn7XWIpiPZnv3VsdoOF6e9N6jnzOfu1Y3mqZj7PSaqpn247tnW3ZXbbue46XIeky26exSosSQ42yRuJcbZ3T3UmehlvERa69od1a19WzCjWvU6u/JTPtFEpLcVDG8mZvmpbWi9SJGilGStS7RFpqOP1qFteMwf8AKb/5gOtQtrxmD/lN/wDMDLb4NxS3eqvxyc1U5n0qfGJj73dNMTHvzmJYrnG+FXbFOnnynLTGI9Grwmmfu98VTE+7GJ3cTEDF61K9yRY9wUakVlyO8tMur0h2pRyTxGsjYakxlGZl2jJ0iI/AfaF39bm1P7smKvm0qPp0RKxaZYGCsqtuvZIvu75jERaTi0myqpU4ziXEdtL8RDzZmntmWpmWnHoLb1yNke03KvzY3D/yYnHZLQXeHaCbN7GeaZ2mJ6xHhMoH2v4ha4lxCL1mJxyxG8THSZ8Yg9bm1P7smKvm0qPp0Yn9E+o2dYWyPXX77yPYdYpBVWmE5FpFlTKbJUvphO6ZPu1WQkiI+My4I9S4tS7Yyw65GyPablX5sbh/5MYndE+zNbF6bI9doNLty/Ich2q0xZO1eyKvTYxEmQkzI35MZtpJ+wRq1M+ItRJ0We42EqHtCydkfGj9p5Qx3TaQulLOLFqNhzpslpHTDvE4+3V2UuHrqepNI4jItOLU7z63Nqf3ZMVfNpUfTogmwrna07V2RcaUOdauRpciHS1NuOUywa1OjqM5LnGh9iKtpwiI+M0KMuIy7ZaDJmy8041v+qOW/b9wuNVplrh3KPVYEml1JLfhWcSW20/ukfEatzQj8IDofW5tT+7Jir5tKj6dD1ubU/uyYq+bSo+nRVQASr1ubU/uyYq+bSo+nQ9bm1P7smKvm0qPp0VUAEq9bm1P7smKvm0qPp0TTLFA2kkX5hhNQyxjV+Q5fEpMFbOPZ7SGH/W3WjNbqTrSjdRwROoJCVNmS1oXvGSDbXlAJVmTvi4J5wJn2VrwB63Nqf3ZMVfNpUfToetzan92TFXzaVH06KqACVetzan92TFXzaVH06Hrc2p/dkxV82lR9OiqgAlXrc2p/dkxV82lR9Oh63Nqf3ZMVfNpUfToqoAIbd7e1vbcCLUIOT8Rzm3J8SJIJ3H9SYNpt55DXCJ0rS99RGsj3D3SMteyIdVSbh2p6kp4l5LxW0TcOfMSSceVFazKNKUwaTL1bLQ1bpK7Z6GZp8Gp5BSYsWa1wEyM0+3voc3HUEpO8lRKSrQ/CSiIyPwGRGOvZtS1o8uRUGLapTcqW8mRIfRDbJx11JmaVrURaqURqUZGfGRmfsgIOxc+1U7S3qgrJOJyW05SG9xGP6ipP9nG0Wpr9Wy03DdPwHvEkj4t7QvjVLw2rKdTadNYvrGc96oVOoU4o8bHk/VJROmN5wlLrqUmRlH10My0Iz03jIkqu7Fi2TGiOwI1nUNqM8hxt1lFPZS2tKySSyUkk6GSibb1I+3uJ17RBIsWyJcEqZLs6hvQ0oQ2UdynMqaJCN7cTumnTRPCL0LTi31adswE8pdK2oqpTYlTYzLig25bDb6DTjSp6GlaSUWmtcI/D4SI/wABDletzan92TFXzaVH06KmhCG0JbbQlKEkSUpSWhERdoiIfoBqb6KWnbGRgyjIz69hp60k3pHKnuWe1VG6iuV0nN4JTyJSlNJbNrhjUSVKUS9wiMy1MXDBWN9rHIOz7jSm3tT8eXFj1Vo0RVPt6PeM2itz4JQ2TjoqW7SJDrx8GSOEaQ+llZ7xKStHEOJ0avksWtzgQfJ1RGVWydyWMN839veTmAH5br+1G02lprDGKEIQRJSlOSqiRERdoiL1B4hrXwlUspt9Fgv6dS7NtSRdivVXpmlyLmks05vVlvf3JqYC3V6FpprGTrqeu7pqe38aq8BfuyWR/wA7/sGgGf8A649qf3G8VfOXUfQQeuPan9xvFXzl1H0EKqACVeuPan9xvFXzl1H0EP0VxbUPBKM8PYtJ0lJJKSyTUd006HqZn6hcRke7oWh66nxlpx1MAEsauLahNRk9h7FqU7qjI05JqKj3tD3S0OhFxGehGfgLU9D7R+cq8vIibnkSZEe5mapLiqbfYpJzn4VLM6eZq6XU42mHOQT5GaVqTFkGrQjL/wBmLsACL2I7fa50ODTirTUKPMfI5VYTUnWpCDjIPXcmkiS39810StbqSUZkhZ8aU/22q3tMxbcpLEDGllVZtMCPvzK/e8+nT3XTbSbvDRk0mQTZkvfIvvyzNJEo90zNJWcAEq9ce1P7jeKvnLqPoIa1cJVLKbfRYL+nUuzbUkXYr1V6Zpci5pLNOb1Zb39yamAt1ehaaaxk66nru6ant/GqvAX7slkf87/sGgGf/rj2p/cbxV85dR9BDWr0MipZTh7SWbXrFs21KvUnOF6fj1a5pNOYY/s9zXgnWoEhT3Zal2TbfFx/gG38aq+hN8qfPv8AHeUXAGf/AK49qf3G8VfOXUfQQ5sK6c9RoFRlXLh211vtskdPjW9ejk5b72vcvHLgw0st6fvkm4r+8FIACWvzajyzkObetfsG6adX4NBnswX2qAt6ESUpShlzeN1tSt77+2tRGSuPQiMi4yKImm1UodOPQa2tx5PZJ4VkjV2+2e/xds+0NgG0ls6wcxJpty07hW67R0mypLLqG1TYmpq4ElLI0pWlRmpBq0SZqWlRpJW+jHivYhtyyKW5Kt2v1KlXhGUlyNGrzrMQ3d0zJSG0OISSjMzLRZKUgzSnQ9D1E+4NxPh9GkpszGLnTpGM90zOJn2zOcONdquA8ar4jXqaZ5rPWJ5qpq5dpmmKeaIzG+Iiac+Md0BpyrbYjodctyrx5CU6G23IZcSXEZaEo1FrxGZa6F2x22PbzTjiolcVsw63QamhlyNwseQw8XBLMjNOqz49d1J9z4O2OgL1TfqSqNEpjzk9KjScdCDW5qX96XGK3jTZIzDkiYy/WqS9a9HUerkyqtG26SfDwcY9HFK8Jb24ky/fCRaueG6W3nUV04x0mKZz7sZn3IPwyjj2vvcuitVRVM7TE3I5ev3ubERvO8zlzMcHeO0nkZpit02667R6QRv1F86g2brcdWhky2bryUMm642hJpQojNKFL7aOK8bOVk02ytpDJlOg4yl2s2mzrWVHObVG6hIcaXOre84twnFm3whtpLgkKNP9jkZ6GZa3LGGLrRxHazNq2hBNplJ8JIkOaKflvaERuuqIi3lHoXaIiIiIiIiIiHmLc5U+Q+b+zfKNxjmvFOJ1a2uaLXo2o+zTtEe3EYjPu98u89n+z9HCrUXb+K9RVvVXOapziIxFVWasRiNs4zviM4VUAAeSkjWr0b3vV40+EEv6sQz/AMT96yzfg/TvqzYwA6N73q8afCCX9WIZ/wCJ+9ZZvwfp31ZsAyx3rLy+D9R+rODADoIXeryX8IIn1Yxn/ljvWXl8H6j9WcGAHQQu9Xkv4QRPqxgNlQlWydyWMN839veTmBVRKtk7ksYb5v7e8nMAKqJVhvvi525wIf2VoIqolWG++LnbnAh/ZWggKqAAAlVucqfIfN/ZvlG4wC3OVPkPm/s3yjcYAKqADqbuh1Co2pWqfSVGmdJp8lmMZHpo6ptRIPXwdkZAI9b9Cc2mJJ31ezq3cZJfWm2raJX9jV1lCtCqVQL/ANu04aTUxGV964PcccStSyJu5x48eHHaiRGG2GGEJbaabSSUIQRaElJFxEREWhEQ8Fs8zqbUsCY4mUhJIhrtSlE03pum0RRWy4My/eqSZGk0nxkZGR8ZCggAAAAAAAAAAAAAAAAAAAAAAADxOWcbMZItxtmHKTTbkor5VS2qwSNXKZUkJMm3S8Km1EpTbrfacaW4g+JQmV/X2rJGz5al1yIHqfUHL/sqHVYG9vHCqMa76cxLj6+Hg32nUEfhJJH4RkGMU6waXcf3pKif+r3toG2ukzLudW7nojUnT/G25Wv99vAMrBKrj5U+POb+8vKNuCqiVXHyp8ec395eUbcAVUAAAAAAAAAAAHxmTIdOiPT6hLZixo6FOvPPOEhttBFqalKPiIiLjMzATTPeAbUzxbHqVVjKDV4hGqm1Vtvecjq/gqLUt9s/Ckz/AAkZHxjXXeNm5S2eK+dvXnR1dJuLPpd5JmuLKSX79h3Ti9k0mRGWvZJIxtZpNYpFfp7NXoVVh1KDIIzZlRH0vNOER6GaVpMyPjIy4jHHuW17cvKjv2/dVEh1WnSC++RpTROIMy7R6H2jLwGXGR9oSrgPam9winze9T5SzPd3x66Z/Tp7OqJ9oOyljjFXnNmryd6Pvd0+qqP16+3o134wzzYlo0es1KqPSumXuAJmE2yZuuKSTmuh9yRcZcZn4f8AAOmOqZq2sri9adnUdUWitrJTzaFqTFjp14lyntOyPi1JOnHp2KTMhkuewNg0r46eOuVYqbupe9b/AE4ntqNWn33+28EZIURFrvapPs+IyGRNJo1mY1tnpGkwqXbtCpzZuLJO5HYaSRdktaj0LXi1NSj1PtmY9/W9qeF6WqdRw+3Nd2rvr6UbY6d8/wB5R/RdleK6umNNxG5FFmnuo6175690f3h4rAWALUwPa/qXSd2bWJhJVU6qtvdckrLtJSXHuNp/ep1/CepmZipDiUqr0mvU9mrUOqRKjBkFvMyYj6XmnC101StJmR8ZH2jHLHPtVqr2tvVX79XNVV1mXRNLpbOis06fT08tFO0RH9//ANAABrtgAAABiZtHElWUHUqVukcSORnproWh8YyzGJe0j3zX/wDqcf6DEK7e/wClR/XHylOf2ff6tP8ARV84dLdVr2pblItKrwZ0irRar0w5MdQRsG6lt4kGlslEZo07ItTI9T49PAObVKBjs7dolXSzVKIdYqPBpXJlFK3YTZ7rz+6hsj4lHokuPU0qHRXFcFOqVmWnQ4qnDlUduamUSkaJI3ZBrRofh7ExzLqr1tXBdlHaS9ITbtNiwqfvE2ZOEwhJcKZJ/hGo3PxmOc13dNE1zRTRiYtxEeFU00805+1iMVRO/WYzLpdFrVTFEXKq8xVcmZ8aYqq5YxHozM5pmNukTiH7um3bSK0W7stdFSjNeq7lMbbmvJcOU0lveJ9OiEbvsGnjIjMuPtjjWba9Ar1Hr02fWHETqbTpEuPBbZV2e4lJk4pzud3VWm72z/AO3vapWRcFTgOR7vmHS2H0xmae1STZRT4R6mZoM3D318SddSI1GZmZ+AdBa1apNCkXCl111TM6ky4EVW5xqWs07m8Xg1IuMUvU6ejWxNUUTRjG0xiZx9rFM7b9I+MZyrZq1FehmKZrivOYzE5iM/Zmao326z8Jxh6a0Mc02fa0Gv1OhV+rFU3ZJKVSjT/YLLWieEUk0nvqUoz0TqWpJPt6DxFAiUGTcEaLcNTdh0o3FdMSG2jNwmyIz7FJErRR6ERcRkRnx8RD3Vm3xb8Sl2q3VavKp7lp1CRLUy0ypzp1tw0qIkmXESiNKk9loWijPXtkOgp8ixJtxUytXA9LKPLmypNWiNs9g0je3mkIMuNRK10PtaELr1rS10WJsTTmOXOZjE7UZ5sYnHNM5id8RMxOOlti7q6Lmoi/FeJ5sTETmN68cucxnliMTG2ZiJjm6/y8LfoES3aFc9CjzYSKwqUg4ct9LyiS0skpcSokJ1SrUy4y7ZHoZjvbXx9bFQhW3T6u5PKqXY3KXFfaeSlqJwZqS1vINJm5vKSevZJ0Iy8I667Z1qXDcMWoSr0mzYrhLaWhuk9LJgspSfBNtI4RRGnXi04tOM+MzHaWve1rxI1qVarTXm5toolIKGlhSunN5Sltbiy7FOilaK3tOIuLUZrFGk89qm7ycvox1pxOJo552mYjNPNMRHTeI3hgv16zzGiLXPzZqnpVmMxXyRvETOKuWJmeu0z6Mvrs4oU3lBptaTSpMSQkyPwGREMshibs5OLeyi264eq1xJClH7JmRajLIT/sHj91zj+er5Q53+0DP72jP8lPzkGGvRbORbcP5YpX1lIzKGGvRbORbcP5YpX1lImqDvf9Dw5FuKvyO59ZeFMzXjSNkmy5DMNJRrnoxKqdsVVstH6bVG0mbLrai4ySaiJDiNdHG1LQrVKjITPoeHItxV+R3PrLwyLAeaxneLWRccWpkFhkmWrnokGsobI9SQmSwh0k/wCAl6D0ol2yvJkTNmHEEyZIcfffsK33HXXFmpbi1U9gzUoz4zMzMzMzFRAAAAASrMnfFwTzgTPsrXhVRKsyd8XBPOBM+yteAVUAAB1N0107aoj9cOGchmIptUgiXum2wa0k472j13EGpenhJJlqQ8hJzHBhXWzRZlHU3SpHqmluqlII0GqElvfI0bvERrU+gj3u2z/fFpQJUWPNjPQ5bSXWH21NOtqLUloUWhkf4DIx5l7FthyKVTqI/QSch0plMeK2uS8ZoQl1t3Q1GveWZrZQajUZmrQyUZkpRGHAgZdt1uz6Pdl1ocoJ1aN0x0s4lb5smTiG1INSE6GZKcR4O1qfaSZl21evEodnP3Vb0Rqpq1S3FafeVGbecU8TSd5zcWpKN49d4kK4uMiPiH9qeO7MrNLhUWqUREiFTnHHYzSnXNEKWhaFnqStT1S6viMzLjI+2RGX1Ox7b9bq7UKJJTS1NstJYROfSbSWkoJsm1kveb04NB9gZcZGo+MzMw6CFlmmxHplJvSH6k1imLJM5mFw0+M0g0Mr4Yn0tJMmtJDZGpxDeh73Fok1D6PZhtJup0iChyVwNaWtqI+5EfbKQ4RkSEsEpBcPvaqPVGpElJqPseMcg8SWIpvccps51SnFuvOu1aYt2SazbNSX3FOmt9H3pstxw1JJKCSRbvEP2WKLE3SQqkSFpRqTKXKjJWUct4lETJG4fAklSUmkm93dMi3dNAHwp2ZMe1eaxTaVWX5kmTIRHZbYgvrNZrJ1SVloj+16MOnv9z2Pb4y19qPOUjHtp0KSxLplPfbXFdN6Olc591DCtxxGjaFrNKE7rzhElJEkiMtC7FOnowAAABgB0avksWtzgQfJ1RGVWydyWMN839veTmBir0avksWtzgQfJ1RGVWydyWMN839veTmAFVGqvAX7slkf87/sGhtUGqvAX7slkf8AO/7BoBtUAAAAHlckXq7YVulXW4UST/ZCGFJlT0REIJRH2W+vt6adyWqj1PdJRlofjKpneTBiSZDNtRFHBJhUpyTU+lWUIkJ34y0qebSa95slKNOhLI06ElR8QCugJpcuUJVDqNAlNqgJp9apqX1LmyTjRY6lqQaXXHlN76U6GaCI0p1UtBGSTPi84vaPXux9y3qQh+RGOR0i/XkMSkJKO09wppcbSkmT4U0pcUpJHup7W9okLcA6SzLkRd1sQLiQhlBTUKUaWXFONkZKNJ7qlIQai1SfHu6H2yMy0M+7ABqrwF+7JZH/ADv+waG1Qaq8BfuyWR/zv+waAbVBqr6E3yp8+/x3lFwbVBqr6E3yp8+/x3lFwBtUHjsj5Oo+OI9NbkUypVmr1yScOk0emNJclzXSSalbpKUlKUJSRqUtSiSku34CP2Im2V7Eu+tXBaWQsev0lVw2g9LS3Dqy3G4s2JKbSh9s3G0qU2v722pC91WhpMjLQzFacZ3W1ZiNk+b2mn4eV50G+aNXLJoFvWVMrdUp1YiMm4t8psVth5p1pS+FI0uONklC+NZmRpMyIx7S38+R6jX6VQbuxneFmt3E5wFHmVuKyTEt40mpLCjacWbLqkEZpQ4Ra7qi7ZaH4q7sM3xlioXDX8lVu37WqsugJpdvU6nSlTUREMTY81UmQ4420b33+PHI0pQSUo/Coc2TFyVkxm0q7kmoY/oln2vUo9xTqpRq45MRU5MUzNng1uNNojscJ2StVrV2JJ10MxkxSxRNcS9Pa+dWLsqrEax8YXTVbWVUPUtFyRmozcA1JUaFOtoW6l1bCVEZG6lBp7E9NeLXzOIto+FXV1e3bnmSahUaFUK9JrVRajIbiUSmxpchMfppwt1JKNtskpSklLNKTWri1Uf2xxBydhukUDHa12JPsxioIh0muyq65Flu09xZqba6X4E0PSd1WiTQ4SV7pcRamY8fa+G7gtaVd2L7mv20/ULKL9bfqFMOWlupwnpTjpRZEXsSU+Sm+DJba+JKkmaVKLVIYp3M17SoFO2mqU9MoMmuY5u2g23dU5mnUOvVBlhDMp93Xgd5lLhvNIc4jQpSNDIyM9CHQWLkunXLtk5GolrUmfVokK0bapNVqjJITFp8qNMry1Nr31Epe8bxNkbaVES0LI9N0zH4xRh7L9IyLBubLzNs3KqjsLhU2qoqbu7ToqWiQ2UOB0ulDTqzSk3XFOKMy4kmRForj7O1jVfH+e8oUWtuRVyJNu0OppOMs1J4KTXroebIzMi7LcWnUvAfFqYtqimOi6ia56skQABYytavRve9XjT4QS/qxDP/ABP3rLN+D9O+rNjADo3verxp8IJf1Yhn/ifvWWb8H6d9WbAMsd6y8vg/UfqzgwA6CF3q8l/CCJ9WMZ/5Y71l5fB+o/VnBgB0ELvV5L+EET6sYDZUJVsncljDfN/b3k5gVUSrZO5LGG+b+3vJzACqiVYb74uducCH9laCKqJVhvvi525wIf2VoICqgAAJVbnKnyHzf2b5RuMAtzlT5D5v7N8o3GACqgAAIpFnls6XLOp9c3kYxuSou1CDVT4mbZqElw1PRZPgbhvPLU408eiW3HVtrNKTaMWlC0OIS42slJURGlRHqRkfhIfiXEiz4r0GdGakRpDamnmXUEtDiFFopKknxGRkZkZHxGQkzeFLnx8WuBL9K3KcjubWrURVTobZfwYyCcbkQy7eiWnTZTqRkyemhhXgEoTfW0FSPvFewNTawtPEUi2rtZcQ5+E0TmoykH/e6r0/hH2x/F3XtG3CXS9AxLblqJVxHOuW4em1tfhTEhIUTv4jktfjAVgBGKJeV/4qvRi0s13RHr1EulxsqFdLdPbgMx6iotFUt9tBmlolmRLjuKUo1mpbSlGtLZuWcAAAAAAAAAAAABPcn5FqNEfj2Bj6MxVL/rrCl06I5qbFPY13VVGaZcbcZs+0XEp1ZE2jsjM0hQh+XHG2m1OurShCCNSlKPQkkXbMz8BCURsKX6uM01XNqTKFQcJCSeNqNQIaFq07I08BTUrSRnroW+Zl7J9sftOzPjCetLt7euO+TIyVwN13BMqcMzLw9JOudKF/gZLwewQDiVjMU3IsmTZOz1IYq8/eVHn3cTXD0Sh6GaXDJ3uJktOhkmM0aiJenDKbTxK63LdlUPHWDLUsq3Uv9IUq+rEaQuQ5wjzyzuumKcedWfduOLUta1fvlLUfhFsgwYNMhs06mw2IkWMgm2WGGybbbQXESUpToREXsEJjtLd7qkc4FifaqlgKqJVcfKnx5zf3l5RtwVUSq4+VPjzm/vLyjbgCqgAAAAAAAAADo72osi4rXn0eJGiyHpCE7jUqQ6w2s0rSrThWfvjR9jxOJIzSeit1Wmh94ACM9THK7zsd9d2Iif2U88tuJVVNqaJTrJocWtERBTFkhtZffG0HoZINS9VLPlMWNleFFisQpsAlnGKJMW9c0941K3oxnKSa2VdmZNPFwZbpdn3fZKFcABIJGKrobVSpM2vyZLEBBOzFeq01x9LptTUPPMdipRr0kM7iS3deD0Ld0Tr28C2b3qdhUmVV3I0q5W57NafiznnG4y3En2LBmRLNokp3TIyQrRaSVumeopAAI3Exdkp1qTNq1zIOYuQ/IbYj1RcdDm++wrceciRo6XDU006jhTZNaCcItV6bx/GqWVmSFQqgxEqrDyHGJEhJNV2WuTHVuTODjsmprV3+3R0ktS0H9713exSLUADymO6FcNCpctu4Xy35MlLzEYqi/OKK3wLaDRwz6UrVqtC1mRloRrPt9serAAAAAAEGy/syVjKN6PXbDynJobTrDTJQ0U43iSaC03t7hkdvt6aC8gNTWaHT8Qt+S1NPNTnON+vubei1+o4dc8tpquWrGM7dPexR6yC4vd2mfEp/8yHWQXF7u0z4lP8A5kXKvZmtW3aNGrc+JU1NPOPNutNMoU7F4KSiO6p0t/QiS64kj0Mz8JEY7uBfdvT6nXqYmQpn1uLYbmSX9EMauoJadxevGREehnxaHxeAx5f8L8J/Bj41fV638VcY/Hn4U/Rjl1kFxe7tM+JT/wCZDrILi93aZ8Sn/wAyMkVXva5m0mJWYk1Tsg42kV9DhoUSnErNWh8RJNh4lewbay7ZGQ62j5XsWrUSHXX67HpTM5x5thupuIjOqNtREo91R9rRSFe9Wkz01D+F+E/gx8avqfxVxj8efhT9EA6yC4vd2mfEp/8AMh1kFxe7tM+JT/5kZA1rKdkURh2S7XoUhuM4luV0vMYM4+qjTvLI1kZFqlWplrpuq/gnp9SyZY3DPpcuWnNR2W2nCluSm0x3N83i3UL3uNSel3d4v3u6fsHo/hfhP4MfGr6n8VcY/Hn4U/Rjz1kFxe7tM+JT/wCZDrILi93aZ8Sn/wAyMrUqStJLQolJUWpGR6kZD+h/C/CfwY+NX1P4q4x+PPwp+iDYg2ZKxi69GbtmZTk1xpph1k4a6cbJKNZab29wy+129NBeQAepo9Dp+H2/JaanlpznG/X3vJ1uv1HEbnltTVzVYxnbp7gYa9Fs5Ftw/lilfWUjMoYa9Fs5Ftw/lilfWUjbaj3/AEPDkW4q/I7n1l4ZFH2u2Mdeh4ci3FX5Hc+svDIsBKNlJaUbNuN6QZ/f6BbkO3pifC3Mp7ZQpKD9g0vR3EmXgMjFXEpquML6tS56rd+FbopcFNfkdO1i3K7FcepsmUaSSqTHcaUlyG8vdTwhkTrazLeNslqUs/q7Wdp5CGeAxvi51ZoPhjXe1QbJK94y0TpSlalu7p6npoZmWh6EowqICVerm1P7l+Kvl5UfRAerm1P7l+Kvl5UfRACqiVZk74uCecCZ9la8Hq5tT+5fir5eVH0QJplis7SS78wwqoY5xq1IRfEpUFDN6T3EPP8ArbrRGl1R0pJto4I3VEpJLPfShO6RKNaAygASr1c2p/cvxV8vKj6IGNHRBbz2iaBgNqsz6VbFqVuLcNOVbMu075qT1UeqilKQTDTHqcyUjeYXJ3m1OERpI1aKNJJMM7AGMOw1d22ZdlkLk7V1mUukoSw2dKmukUWsSzPTU5URBbjfFrxmTS9SIjbPXeGSlUqtLokB6qVqpRYEKORG7JlPJaabIzIiNS1GRFxmRcZ+EBxrluWiWfQptzXJPTCplPb4WS+pClk2jUi10SRqPjMu0RiTV7axwqqgVU7ev011NEJ5UQkUmWoye3FcHxKZ07rTt8XsjGzaq2pLlqNw3pii36xbNQtF5EWM0/HInnHULjMuubryHN0zJw1J4i4u12yGMblRjU+YRMKhOEpo+yUpR7h6l7Cy7f4fYHu6LhFN63z3qsZxjEx0lDOLdqK9LemzpKOblzFWYnrGOm8ZhnHsgZyypk6/qhRb6u92rQ2aK/LQ0unxo+46mU0hKiU00gz7BR8RmZcfa9jLdSkoSa1qJKUlqZmehEQ1K40zNcmEa8iv2Q/SFyqhCkQnyltG6lLfDkvXQlloZmgj/EoZ5Qs3WbfWz6T9xZHteBcdxWw42+wzORwjUt6OpOiWEqU7qSldyRGotBh4po5ov5tR6M4xEeyM7Q2+zvFPK6Pl1NU89PNMzV4c1WN59ULTQbgod00mPXrcq0WpU6URqZkxnScbXoZkehl4SMjIy8BkZGOwGvTGOdMiWBLlUbGtKiVM6w5HddpkmnSJbyHySZK4NthxJktSDaSrUlf2tPEM8rNnXLU7VpdRvCjsUqtSYyHZsJh7hUR3DLU0b3hMuLXTUiPUiNRFvHbxXhVzhV6aKqomO6YmMzHrjOY97N2d7RWO0Oni7bpmmqIjmiYqxEz3RVMRFXuztjLuQAB5SRMAOjV8li1ucCD5OqIyq2TuSxhvm/t7ycwMVejV8li1ucCD5OqIyq2TuSxhvm/t7ycwAqo1V4C/dksj/nf9g0Nqg1V4C/dksj/nf9g0A2qAAAA4kOlwae/LkxWDS9Od4aQtS1KUtW6SS41GehEREREXEXgIcsAAdW3bVFara7iREV0+tJp3zeWaE6kRGpLZnuJUZJSRqIiUZERGZkO0AAAAABqrwF+7JZH/ADv+waG1Qaq8BfuyWR/zv+waAbVBqr6E3yp8+/x3lFwbVBqr6E3yp8+/x3lFwBtUAAAeDv7HHrrqLtVp7VPYmPUGoUhyS6kydXwymVNIUpKTM2iNte8WvFvcRHqY4yrQvFynOGqFREy3K6iu9LJqDvAEtDiNGd/gCMyNKTXv7nEvQt0y7IUUAEmn40vGTbtPo7bdDNyPSptHc35jpNttyiaUp5siZ41NqbUhKD0JSdD3kGZpL2rtDq9UuSlVSrJiJg0luSttht9bhqlKUSGnj1QkuJnhOLwKdMi10JQ9IAAJVbnKnyHzf2b5RuMVUSq3OVPkPm/s3yjcYCqgAANavRve9XjT4QS/qxDP/E/ess34P076s2MAOje96vGnwgl/ViGf+J+9ZZvwfp31ZsAyx3rLy+D9R+rODADoIXeryX8IIn1Yxn/ljvWXl8H6j9WcGAHQQu9Xkv4QRPqxgNlQlWydyWMN839veTmBVRKtk7ksYb5v7e8nMAKqJVhvvi525wIf2VoIqolWG++LnbnAh/ZWggKqAAAlVucqfIfN/ZvlG4wC3OVPkPm/s3yjcYAKqAAAAAAAAADrbktugXhQZ1r3TR4lVpNTZVHlw5TRONPNq7aVJPt/7j0MuMSyLSMu4UQmHbbMzJdjx0klmnyZqSuOltl20tSH1E3UGyLiSl5bb5F23Hj0IWUAHgrNzljC+KkdvUu5kQrhQWrtAq7LlOqrXs6xJCUOmnUjLfSk0HpqSjLQx70dDeFhWPkKmlRr8s+jXDBSe8mPU4LclCFfwkksj3VcRaGWhloQ8MWzpblK/wCgl/5Ds8i7lmm3M/JjN+8jT+mI7Zf3qGyL8ACrgJSWLsxxOxgbTVxSEl2jqluUd5Z/jNiMwX+giH96mma3+xlbSlUZSfbODa9MbX/gN1t0v+4BVR5a+MpY6xsyy7fV50qjLk8UWPIkJKTKV/BYYLVx5Xb7FCVHxHxDyJ4BOqcV65qyjcqD7tpVeTSEL/AZUlqJqX4DPQy4j1Hp7Jw/i7HDz0uyLDo1Jmyf/SJzMVJzJH4XZCtXXT/CtRmA8c5fOXspIKJi20pNlUV7Tfum7YCm5Sm/CcOlKMnd4yPiXL4Eknxm06XEfGpGDb/sOZPdxflOlwU1daJNUm3FbblYqtRlEWhuvyymM7xeBDaW0obT2KCSnRJWoAEq9Z+0n7ulmfN+76TD1n7Sfu6WZ837vpMVUAEq9Z+0n7ulmfN+76TE02g7V2gWLDpS6tmW0pbB3xZaENs2O6ypLyrkpqWXDUdQVqlDhoWpOnZpSad5O9vFlAJVtLd7qkc4FifaqlgHrP2k/d0sz5v3fSYmlftXaBTtJWLHdzLaS6gux7sWxJKx3SbaZTPoBOtqa9UDNSlKUyZK3i3SbUW6rf1TlAJVcfKnx5zf3l5RtwA9Z+0n7ulmfN+76TD1n7Sfu6WZ837vpMVUAEq9Z+0n7ulmfN+76TD1n7Sfu6WZ837vpMVUAEq9Z+0n7ulmfN+76TD1n7Sfu6WZ837vpMVUAEq9Z+0n7ulmfN+76TD1n7Sfu6WZ837vpMVUAEq9Z+0n7ulmfN+76THzcs3aZNTamc8WUncVvKSrHrykrLQy0P8A/EyPTUyPiMj4u2KyACTQsj5FsS5aRa+aaRRHoNwS006mXVb6XmYapq/7VGlRHlOLiqcMjS2snnUKWZIM0KUgl1kSzanZaVs4ZJnreQy5R7anVqM8sjMmJUJpUph3sSM+wdYbVxEZ9jxFqKmAAAAAAAAAAAAAAPHS8V2zOqFYqElcxZ1p+K+80a0m23wDiXN1tJp7FLi0Ebhce8fhIfyg4rtygUGo281KqMuPVYRQpbkp5K3XE6OarNRJLsz4VWp/gLQi0HsgATil4JtGkQJtPjVKtKRPaNp1bklBrIlMcCs0nucRqJTyzP8AhyHT8JEnmuYbs/pmovQum4DFShvw3IkVTaGG+FbabccQk0GaVmhhou2aex7WpmPdAAm8jBlvvuS3k3HXY6pUk5iExzitNx3jW4s1obSxuGozc41LSpStxG8atOP+S8EWtNUuQ/V6suY64t1yUtMVxS1rVIUszQtg2+yOUvtILTdTpp2W9SQAfKJGZhRWYcZBIZYbS02kiIiSlJaEREXEXEQ+oAAAAAAw16LZyLbh/LFK+spGZQw16LZyLbh/LFK+spAe/wCh4ci3FX5Hc+svDIsY6dDw5FuKvyO59ZeGRYAAAAAAAAlWZO+LgnnAmfZWvCqiVZk74uCecCZ9la8Aqo+bkdh5bTjzDa1sLNxpSkkZtq3TTvJPwHuqUWpeBRl4R9AABEdoHGF+XXYN3vUy/wCqSiegtvsUFuFH6XUqM6T6UtmSOG31GjTuz3j0Iy00IW4fxSkoSa1qJKUlqZmehEQvtXJtVxXT1ic/Bhv2adTaqtV9KomJ98Yajqdc1yE3vlXTdTukkkKjt6I09jQiP/SZjnzJd3MNQqyq5DJqRwiUMIjo3ex3dd7VHH2y0MlHpxlxHqQz9qmB6G1VHLyxrT7bNVRUqYceVHSTS3HT3jdZlNoWttKt41GndcSepbu4WusIyzsrZMu64nbgte2zhS5qjcmNrmRelVOcWriFkslkauMzI2+M9T1LXQdH0najS6mumi9miOuZqmd/Du7+/eNsOGcT/Z9xLQW67mlxdq6REUUxiPHvidtsbTvnM43xslXDcq3W5B3E4wlvXsEMNbqvx6pMz/0jl0V/IuQK1EtC0XH5NQnuE20mPGRvH7JmZkZJQRampR8RERmehC5W3sF37MmRvXze9BorMpW623HUuXJWoiNRoJBk2jXdSo9UrVoRGeh6GMssSYMx9hinLi2jTlrmyEkmXU5aiclSC9g1ERElPEXYIJKdS10M9TOvEu1Gk09FVOkqmuufXViPz+XxV4D+z7ieru0V8Sppt26e7lomqY8MRE/Grp4S8/YeCrksSx6PaNGypUaaqE8mZOdgU6L/AGdINZLc31OtrVuGZEnQjI9xKU66CusJdQyhD7pOOEkiWsk7pKPwnpqeg+gDm9y5VdqmuuczO8u52bNvT26bVqMU0xEREdIiNoiASr1x7U/uN4q+cuo+ghVQFjK1l9F2q2aJ+zbbbORrAsqh00r4hqakUS75dVfU/wBIT91CmnqbFSlBpNZmsnDMjSkt094zTkpsyV/aSZ2bcUM0LE+NZlNRY9CTDkS8hT4z7zBQGeDW40miuJbWadDNBOLJJmZEpWmpyDo1fJYtbnAg+TqiMqtk7ksYb5v7e8nMAHrj2p/cbxV85dR9BDWrhKpZTb6LBf06l2baki7FeqvTNLkXNJZpzerLe/uTUwFur0LTTWMnXU9d3TU9v41V4C/dksj/AJ3/AGDQDP8A9ce1P7jeKvnLqPoIPXHtT+43ir5y6j6CFVABKvXHtT+43ir5y6j6CD1x7U/uN4q+cuo+ghVQASr1x7U/uN4q+cuo+gg9ce1P7jeKvnLqPoIVUAEq9ce1P7jeKvnLqPoIPXHtT+43ir5y6j6CFVABKvXHtT+43ir5y6j6CGtXCVSym30WC/p1Ls21JF2K9VemaXIuaSzTm9WW9/cmpgLdXoWmmsZOup67ump7fxqrwF+7JZH/ADv+waAZ/wDrj2p/cbxV85dR9BDWr0MipZTh7SWbXrFs21KvUnOF6fj1a5pNOYY/s9zXgnWoEhT3Zal2TbfFx/gG38aq+hN8qfPv8d5RcAZ/+uPan9xvFXzl1H0EHrj2p/cbxV85dR9BCqgAlXrj2p/cbxV85dR9BD3VoS70m0ZL9/UCiUarG4olRaPV3alHJH71RPuxoyjM/CXBEReyY7sAAAAAEqtzlT5D5v7N8o3GKqJVbnKnyHzf2b5RuMBVQAAGtXo3verxp8IJf1Yhn/ifvWWb8H6d9WbGAHRve9XjT4QS/qxDP/E/ess34P076s2AZY71l5fB+o/VnBgB0ELvV5L+EET6sYz/AMsd6y8vg/UfqzgwA6CF3q8l/CCJ9WMBsqEq2TuSxhvm/t7ycwKqJVsncljDfN/b3k5gBVRKsN98XO3OBD+ytBFVEqw33xc7c4EP7K0EBVQAAEqtzlT5D5v7N8o3GAW5yp8h839m+UbjABVQAAAAAAAAAAAAAeUyx3rLy+D9R+rOD1Y8pljvWXl8H6j9WcATDYPlyp+yBi2fPkuyZMmhpeeeeWa1uLU6s1KUo+MzMzMzM+MzMXoY/wCwHyNsT/B9v9osZAAAAAAAAAAAAAlW0t3uqRzgWJ9qqWKqJVtLd7qkc4FifaqlgKqJVcfKnx5zf3l5RtwVUSq4+VPjzm/vLyjbgCqgAAAAAAAAAAAAAAACVbWPJYzJzf3D5OfFVEq2seSxmTm/uHyc+KqAAAAAAAAAAAAAAAAAAAAAAAAAAAAAAADDXotnItuH8sUr6ykZlDDXotnItuH8sUr6ykB7/oeHItxV+R3PrLwyLGOnQ8ORbir8jufWXhkWAAAAAAAAJVmTvi4J5wJn2VrwqolWZO+LgnnAmfZWvAKqAAADGRdczvlbEVZy/Qr+oVEo9QgVB+n2y9R0vNrgtk4gikS98nEurSkzM0kRJMyLTiMhk2I9Udl6xJ8ioRmbjvCn27V5LkuoWxCrCmqVKccVvOEbRJ30IWozNSG1pSep8WgupmI6sdcTPROsL13LGRrYodjWDesCy6XZNnWyzJmLpKKjJny5VLZfIiS4skttIQpBdreNW9x6FxdnDzTlS7JtFxHTJ1EpF4O16s0Wr19EY34yWqY2w449GjqVxuOplM6JUo0oMnSPtFpSLpwJatfrrNz0Gu3FZlVRCbpr0m2ZqYfTUVviaadQaFoUSC1JKiSSklxEZERafOXs645cs6k2hTE1akKocxdRgViBUFt1NmY5rwz/AEyreUtbm8rf3tUq1IjLQk6Xc1KyKK4jCVZ9qGRMYxcYVKsXFBvavtXs43THZMZqktqN+C+yy2+aVGjRK3NVLLc1TxaEZan3N25ByVSKs3j2uZXodqLtu227juu7F0ttzhFPyHG2o8SO6e4SEmhSd9RLUr72Wm8Z6+4mbOtm16hUy376rlyXjHptSkVTer89Mlchx6OthTa9EJJLZJcM0pbJG6oiUXHrr1lybKeNbpolsU2pVC4fVGz08FSK4UxC6gyyThrQ0pbjam3UoMyJG+hRpJJaHqajNzU95NFe8x83laNl7Nr2PbdhTqZDYuW87mXRLeq9Sp5xScppNLe9UZEElmbbnBtObrO+W8e6Z6Eeh3u1qdXaTQIdPua4vV6pspUUio9KIi8OZqMyPgkGaUaEZFoR+DXwjzzWJ6GTFntz63X6m9Zc5yowpdQnnIkSX1tPNKOQ4sjNZaPrMiLdItEkWiS3R7YW1TE9GSimY6gAAtXsAOjV8li1ucCD5OqIyq2TuSxhvm/t7ycwMVejV8li1ucCD5OqIyq2TuSxhvm/t7ycwAqo0q3/AJJyts7dEKyXmqysRVS7XSqtQhNH0nJ6TdbdSlBmlTaFGak7pJMyUZGpKuIu0W6oAGqv7rJtT+KH+j1HzYfdZNqfxQ/0eo+bG1QAGqv7rJtT+KH+j1HzYfdZNqfxQ/0eo+bG1Qddcdabtu3qncT0GdNbpcN6YqNBjqfkvk2g1GhptPGtatNEpLjMzIgGrVrouO00/JfhMbJ7LkiLu8O0huoGtreLVO8kkap1LjLXtj7/AHWTan8UP9HqPmxyNkes7YNqbZlz5Qyti6vooeT5kaHdERgikuUM5CDXSnHmUGbjaGUETO8siJtpa9/RREQ2mANVf3WTan8UP9HqPmw+6ybU/ih/o9R82NqgANVf3WTan8UP9HqPmx5jYIn5Pyl0RCt5vu/GVXtxFfp1TmykLgvojxlLbbQSSW4kuIzIi1PwmReEht7ABh7tu5D25LIu+3GdlCyV3BR5dNcVVTOltSksyUumSdFKUlRGaD4y1MuxLTTj1147P1vdEgwhfl2Xpi/ANzRqzdJKOqLqlsLJlerxuHwfDbqe7UfcmfF+Ab0AAaq+r70ZL3Ff1cY84HV96Ml7iv6uMecG1QAGqvq+9GS9xX9XGPOB1fejJe4r+rjHnBtUABqr6vvRkvcV/VxjzgdX3oyXuK/q4x5wbVB11x3DRrRt6p3XcdQag0mjQ3p86U6eiGI7SDW4tX4CSkz/AMADV51fejJe4r+rjHnB5Sm5t6LA3lO4apBxFvXZIt+jR6pG9QGT4OnNyakqEvc4TQt512oFrrx8Hp+9LXPHYn2xaFtgWbcVcjUlujVe3aw7EkU0nd9aYTilKhvn+FbZKQrwcIy4ZESTSQ9zbnKnyHzf2b5RuMBgB1fejJe4r+rjHnA6vvRkvcV/Vxjzg2qAA0f7UEHol20XQqJQ8x4DuGXDpEtyXCKjWyo1pdUgkqNfAGs9NO1roNzeMokqBja04M6M7GkxqHAZeZeQaFtrTHQSkqSfGRkZGRkfGRkPSgA8pljvWXl8H6j9WcGAHQQu9Xkv4QRPqxjP/LHesvL4P1H6s4MAOghd6vJfwgifVjAbKhKtk7ksYb5v7e8nMCqiVbJ3JYw3zf295OYAVUSrDffFztzgQ/srQRVRKsN98XO3OBD+ytBAVUAABKrc5U+Q+b+zfKNxgFucqfIfN/ZvlG4wAVUAAAAAAAAAAAAAHlMsd6y8vg/Ufqzg9WPKZY71l5fB+o/VnAEq2A+Rtif4Pt/tFjIAY/7AfI2xP8H2/wBosZAAAAAAAAAAAAAlW0t3uqRzgWJ9qqWKqJVtLd7qkc4FifaqlgKqJVcfKnx5zf3l5RtwVUSq4+VPjzm/vLyjbgCqgAAAAAAAAAAAAAAACVbWPJYzJzf3D5OfFVEq2seSxmTm/uHyc+KqAAAAAAAAAAAAAAAAAAAAAAAAAAAAAAADDXotnItuH8sUr6ykZlDDXotnItuH8sUr6ykB7/oeHItxV+R3PrLwyLGOnQ8ORbir8jufWXhkWAAAAAAAAJVmTvi4J5wJn2Vrwqoiu0zX/WQ7jDJcyiVWo0az70cqFX9TY3DvMR3qFVoSHNzUtS6YmR0H7G+QC1AMauv6w37V8gfJ5X9cOv6w37V8gfJ5X9cBkqAxq6/rDftXyB8nlf1w6/rDftXyB8nlf1wGSoDGrr+sN+1fIHyeV/XDr+sN+1fIHyeV/XAZKgMZJnRCMH09pL86gX4w2p1phKnKAZEbji0ttp7vtqWpKSLwmZEPt1/WG/avkD5PK/rgMlQGNXX9Yb9q+QPk8r+uHX9Yb9q+QPk8r+uAyVAY1df1hv2r5A+Tyv64df1hv2r5A+Tyv64CK9Gr5LFrc4EHydURlVsncljDfN/b3k5gYGdEtzpQ9pbBVCsXF1mXpJqsC7YtWeRKoq2kFHRDmNKMjIz4959vi/CYz52XIUymbMuI6bUIzkeVFsSgMPsuJ3VtuJp7JKSoj7RkZGRkAp4AAAAAAAAAJVjzv65c/MH1NYqolWPO/rlz8wfU1iqgAAAAAAAAAAAAAAAAADw2acQ29nbHk/GN21aswaJVnY6qgVKkpYekstOpcOOpxSFGTazQRL3d1Rp1IlFqY9yADEjYt2UsS4tm1PK+Oo9XoM867eNry6exUVvQJsKLcc1iJwrb2+vhGWorKELQtJmRK3t41KM7FbnKnyHzf2b5RuMNmnvdVfnAvv7VVQLc5U+Q+b+zfKNxgKqAAAAAAPKZY71l5fB+o/VnBgB0ELvV5L+EET6sYz/yx3rLy+D9R+rODADoIXeryX8IIn1YwGyoSrZO5LGG+b+3vJzAqolWydyWMN839veTmAFVEqw33xc7c4EP7K0EVUSrDffFztzgQ/srQQFVAAASq3OVPkPm/s3yjcYBbnKnyHzf2b5RuMAFVAAAAAAAAAAAAAB5TLHesvL4P1H6s4PVjymWO9ZeXwfqP1ZwBKtgPkbYn+D7f7RYyAGP+wHyNsT/AAfb/aLGQAAAAAAAAAAAAJVtLd7qkc4FifaqliqiVbS3e6pHOBYn2qpYCqiVXHyp8ec395eUbcFVEquPlT485v7y8o24AqoAAAAAAAAAAAAAAAAlW1jyWMyc39w+TnxVRKtrHksZk5v7h8nPiqgAAAAAAAAAAAAAAAAAAAAAAAAAAAAAAAw16LZyLbh/LFK+spGZQw16LZyLbh/LFK+spAe/6HhyLcVfkdz6y8Mixjp0PDkW4q/I7n1l4ZFgAAAAAAAAAAAAAAAAAAAAJVtLd7qkc4FifaqliqiVbS3e6pHOBYn2qpYqoAAAAAAAAAAAAAAAAAAAACVY87+uXPzB9TWKqJVjzv65c/MH1NYqoAAAAAAAAAAAAAAAAAAAACVbNPe6q/OBff2qqgW5yp8h839m+UbjDZp73VX5wL7+1VUC3OVPkPm/s3yjcYCqgAAAAADymWO9ZeXwfqP1ZwYAdBC71eS/hBE+rGM/8sd6y8vg/UfqzgwA6CF3q8l/CCJ9WMBsqEq2TuSxhvm/t7ycwKqJVsncljDfN/b3k5gBVRKsN98XO3OBD+ytBFVEqw33xc7c4EP7K0EBVQAAEqtzlT5D5v7N8o3GAW5yp8h839m+UbjABVQAAAAAAAAAAAAAeUyx3rLy+D9R+rOD1Y8pljvWXl8H6j9WcASrYD5G2J/g+3+0WMgBj/sB8jbE/wAH2/2ixkAAAAAAAAAAAACVbS3e6pHOBYn2qpYqolW0t3uqRzgWJ9qqWAqolVx8qfHnN/eXlG3BVRKrj5U+POb+8vKNuAKqAAAAAAAAAAAAAAAAJVtY8ljMnN/cPk58VUSrax5LGZOb+4fJz4qoAAAAAAAAAAAAAAAAAAAAAAAAAAAAAAAJrtH4omZwwndeLqZUotOn12FwMOdJbNaIrxLSpLuieyI0mniMuMjFKABqmi9CQ2nILCYsLayajso13W2naghKdT1PQiXoXGZmPr9yb2p/G8/SKj5wbVAAaq/uTe1P43n6RUfOB9yb2p/G8/SKj5wbVAAaq/uTe1P43n6RUfOB9yb2p/G8/SKj5wbVAAaq/uTe1P43n6RUfOB9yb2p/G8/SKj5wbVAAaq/uTe1P43n6RUfOB9yb2p/G8/SKj5wbVAAaq/uTe1P43n6RUfOB9yb2p/G8/SKj5wbVAAaq/uTe1P43n6RUfOB9yb2p/G8/SKj5wbVAAagMl9DI2krLtyHWKztSeqUeRcFBpKGeHnnuPzqrFhsvdkvT707Ibd9n73xceg9X9yb2p/G8/SKj5wZ/wC0t3uqRzgWJ9qqWKqA1V/cm9qfxvP0io+cD7k3tT+N5+kVHzg2qAA1V/cm9qfxvP0io+cD7k3tT+N5+kVHzg2qDjVKpQqRCcqFRfJmO1pvrNJnpqZEXERGfbMgGrT7k3tT+N5+kVHzgfcm9qfxvP0io+cGyO6Ms2TZ8lcOsyKut5uU3CcTT6DPn7j7iUKbbUcZlwkqUTqN0j7oz0LUyMi4T2cLAjzp9NfK525FMS2qShVpVYt3hF7jZJPpbRZrVxIJJmatD3SPQ9A10/cm9qfxvP0io+cD7k3tT+N5+kVHzg2hW/cVJuinJqlHedWya1NqQ/GcjvNLLtocadSlxtReFK0kZalxDsgGqv7k3tT+N5+kVHzgfcm9qfxvP0io+cG1QAGqv7k3tT+N5+kVHzgfcm9qfxvP0io+cG1QAGoG3ehj7SVYvu7rWibUnS823+kOm5fDz/7K4dk1o7S9exItOP2eIeq+5N7U/jefpFR84M/8ed/XLn5g+prFVAaq/uTe1P43n6RUfOB9yb2p/G8/SKj5wbVAAaq/uTe1P43n6RUfOB9yb2p/G8/SKj5wbT3pMeNwfTEhtrhVk2jfWSd9Z9pJa9sz9gecquUsY0GptUWuZGtenVB9ZttRJdXjsvOK3zRupQpZKM98jToRd0Rl2yAa0/uTe1P43n6RUfOB9yb2p/G8/SKj5wbHkZwws4w/JRl+yVMxVpbfcK4IhpaUozJKVHwmiTM0noR9vQ/YHsY0mNNjtTIcht9h9BONOtLJSFpMtSUky4jIy8JANWH3Jvan8bz9IqPnA+5N7U/jefpFR84NqgANVf3Jvan8bz9IqPnA+5N7U/jefpFR84NqgANVf3Jvan8bz9IqPnA+5N7U/jefpFR84NqgANQGNOhkbSV6W5MrFG2pPU2PHuCvUlbPDzy334NVlQ3nuxXp99djuO+z984+PUKb0MjaSmZTuGxWdqTg6lSLfo1WkT+Hn/f2JkmpNNM67+997VBeVx8X3/i8I2X7OcV2Hj6rNPKaNSr7vd0jadQ4W6u56mtPGkzIj0UWqe2k9UmRGRkXytzlT5D5v7N8o3GAwA+5N7U/jefpFR84H3Jvan8bz9IqPnBtUABqr+5N7U/jefpFR84H3Jvan8bz9IqPnBtUABqoe6EttQyGlsP7W6XGnEmhaFv1E0qSZaGRka+MjIZW7AmxrXtju1rsolx3nBuGVctQjykrhMraaZbabUki3V8e8ZrVqeumhJ9jjyqAAEq2TuSxhvm/t7ycwKqJVsncljDfN/b3k5gBVRKsN98XO3OBD+ytBFVEqw33xc7c4EP7K0EBVQAAEqtzlT5D5v7N8o3GAW5yp8h839m+UbjABVQAAAB8Jk+DTmemKhNYitaknhHnCQnU/BqfEOB67LV9s1K/11v+kXRTVPSFJmI6u2AdT67LV9s1K/11v+kPXZavtmpX+ut/0ivJV4Kc0eLtgHyjSY0xhEmJIbfZcLVDjayUlRfgMuIx9RYuB5TLHesvL4P1H6s4PVjymWO9ZeXwfqP1ZwBKtgPkbYn+D7f7RYyAGP8AsB8jbE/wfb/aLGQAAAAAAAAAAAAJVtLd7qkc4FifaqliqiVbS3e6pHOBYn2qpYCqiVXHyp8ec395eUbcFVEquPlT485v7y8o24AqoAAAAAAAAAAAAAAAAlW1jyWMyc39w+TnxVRKtrHksZk5v7h8nPiqgAAAAAAAAAAAAAAAAAAAAAAAAAAAAAAAAAAAAAAAAAAAAAAAAAAAAAAAAAlW0t3uqRzgWJ9qqWKqPH5YxjQMwWYqxLpaaepL9UpNRlx3o6H2ZSIVQjzOl3W1kaVtu9Lk2sjIy3Vq4jHmutO2WPFpxV8jad5kBVQEq607ZY8WnFXyNp3mQ607ZY8WnFXyNp3mQFVHU3Xb7d02/MoDzxNNzEpSpRt75aEolGRp1LXXTTt+EeA607ZY8WnFXyNp3mQ607ZY8WnFXyNp3mQHdHimCzKqDtOnNQ2Z1dptbJluL2LZxUskbfdce/wOu9xab3aPTj+9wY3auCoViY/WHmW6udJ3kMkttbZQpCnexcQtKiNe9pqWhp014+0PPdadsseLTir5G07zIdadsseLTir5G07zICjUWh0y34XSFKjqbaNanVmt1brjjij1UtbizNa1H4VKMzHPEq607ZY8WnFXyNp3mQ607ZY8WnFXyNp3mQFVASrrTtljxacVfI2neZDrTtljxacVfI2neZAVUBKutO2WPFpxV8jad5kOtO2WPFpxV8jad5kAx539cufmD6msVUYwWJsybNszM+UaXL2fMavwqf6idKRnLTgKaj8JEUpfBoNrRG8ZanoRanxmKV1p2yx4tOKvkbTvMgKqAlXWnbLHi04q+RtO8yHWnbLHi04q+RtO8yA9teFuv3LGp0VmQbKYtSYmOqS8tpe4gz1JKk8ZK4y9j8Y8zQcb1ejz6M8qbHdZptxVerLNb7jjimZSZBNlqpOqllwyd7U9OI9DPi16/rTtljxacVfI2neZDrTtljxacVfI2neZAdi/jmvv1N6XHr/qaTt0uVtL8M0KeSwqn9L7hE80tG+a+2RkZbvGR68Q9pQKHAtujxaHTErKPEQaUm4reUozMzUoz9kzMzPwcfERCddadsseLTir5G07zIdadsseLTir5G07zICqgJV1p2yx4tOKvkbTvMh1p2yx4tOKvkbTvMgKqAlXWnbLHi04q+RtO8yHWnbLHi04q+RtO8yAqon2S82WbjmOqnlJKu3XKI0Um1qW6l6qVJ8+JKEMkeqEamW+8sibbTqpakkWo6o9k7ZYMtOtpxV8jad5keys7GuOsdsORsf2DblssukRON0elMQkr/GTSUkYDrsM2TUse40otsVyUzJrCUvTqs8yR8G5UZT7kmWpGvHum+86Za8emg8/bnKnyHzf2b5RuMVUSq3OVPkPm/s3yjcYCqgAAAAAAAAACVbJ3JYw3zf295OYFVEq2TuSxhvm/t7ycwAqolWG++LnbnAh/ZWgiqiVYb74uducCH9laCAqoAACVW5yp8h839m+UbjALc5U+Q+b+zfKNxgAqoAADHjaEgxa9lG06HV2umqeVLmSCjLUfB8LvEW9oXh0IiHl+pnYXtXhfyT/AKR3+0VTZdVyva0SFV5FNdOkSlcOwRGsiJwuLj9keT9Ytye6VWf5tv8AoHq1VTTbtxF3l26b+M+DTiM11Zozv6vCPF95uPLChw35frUhL4BpTm7oZa7pGemv+AeMhNW3UYjU6DhWU/HfSS23ELQZKSfh7Y9HVLJuJqmS3V5FrDiUMOKNCkN6KIknxHxeEV/ZgjR5GMYXDsNubqEab6SPTiP2RWL02rU3Oea94jrVGNp9ink4rrinl5dvCPUmuIcjV7GEatU08Y11+nz53TcKM08gkxkmkiUkiUfhMiPiFB65Op+4/cX8+0LN6nU/+4I/80n+gPU6n/3BH/mk/wBA1rmqou1c9duM+2fqzU2aqI5Yqn8vojPXJ1P3H7i/n2h8pe0RJnxXoM7CtdkxpLamXmXnGFocQotFJUk+IyMjMjI+IyMWv1Op/wDcEf8Amk/0B6nU/wDuCP8AzSf6BZ5a1+FHxq+qvk6/55+EfRDqXn1NDgNUuiYMq9PhMb3BRopx2mkaqNR7qE6EWpmZnoXbMzHL65Op+4/cX8+0LN6nU/8AuCP/ADSf6A9Tqf8A3BH/AJpP9AeWtfhR8avqeTr/AJ5+EfRGeuTqfuP3F/PtB1ydT9x+4v59oWb1Op/9wR/5pP8AQHqdT/7gj/zSf6A8ta/Cj41fU8nX/PPwj6IuvaWqDSFOOYiuBCEEalKVIZIiIu2ZnqKnYt1NXxaVMuxiGuI1U2eHQytZKUhOpkWpkXb0IeRzdGjx7VPgGG295D+u4ki1+9n7A5mAe81af5PT/tKF1fk67E1004mJiOs+E+MqU81Nzlmc7er1KAAANNnBKtpbvdUjnAsT7VUsVUSraW73VI5wLE+1VLAVUSq4+VPjzm/vLyjbgqolVx8qfHnN/eXlG3AFVAAAAAAAAAAAAAAAAEq2seSxmTm/uHyc+KqJVtY8ljMnN/cPk58VUAAAAAAAAAAAAAAAAAAAAAAAAAAAAAAAAAAAAAAAAAAAAAAAAAAAAAAAAAAAAAAAAAAAAAAAAAAAAAAAABKsed/XLn5g+prFVEqx539cufmD6msVUAAAAAAAAAAAAAAAAAAAAAEqtzlT5D5v7N8o3GKqJVbnKnyHzf2b5RuMBVQAAAAAAAAABKtk7ksYb5v7e8nMCqiVbJ3JYw3zf295OYAVUSrDffFztzgQ/srQRVRKsN98XO3OBD+ytBAVUAABKrc5U+Q+b+zfKNxgFucqfIfN/ZvlG4wAVUAABj/m3vzWp+RZn+2Q444+0VW4lv5XtaozW5DjSaRKRow0bi9TcLwEPJ9Ve2/7hrPxe4PQu6a7dot1UUzMcv6y1qLtFFVUVT3/AKQ9PWv/AFNP/wCqu/7Bj2ey13sYfvEfQYjlUylbsimS2EQqwSnGHEEaoDhFqaTLjMWPZa72MP3iPoMW12blnTT5SMelHylWm5TXdjlnO0/OFiAAGi2AAAAAAAAAAE3zn/0V/wCw/wDszHIwD3mrT/J6f9pQ4+c/+iv/AGH/ANmY5GAe81af5PT/ALShtR/2s/1R8pYZ/wA6PZPzhQAABqswJVtLd7qkc4FifaqliqiVbS3e6pHOBYn2qpYCqiVXHyp8ec395eUbcFVEquPlT485v7y8o24AqoAAAAAAAAAAAAAAAAlW1jyWMyc39w+TnxVRKtrHksZk5v7h8nPiqgAAAAAAAAAAAAAAAAAAAAAAAAAAAAAAAAAAAAAAAAAAAAAAAAAAAAAAAAAAAAAAAAAAAAAAAAAAAAAAAAJVjzv65c/MH1NYqolWPO/rlz8wfU1iqgAAAAAAAAAAAAAAAAAAAAAlVucqfIfN/ZvlG4xVRKrc5U+Q+b+zfKNxgKqAAAAAAAAAAJVsncljDfN/b3k5gVUSrZO5LGG+b+3vJzACqiVYb74uducCH9laCKqJVhvvi525wIf2VoICqgAAJVbnKnyHzf2b5RuMAtzlT5D5v7N8o3GACqgAAIDmk2yzXaRupNSCo8veIj0My4QtRz7olW7KlsrtyIthkmiJwlFpqrX2NT8A67NvfmtT8izP9shxxtan7Nv+n9ZYbXWr2/pDhVr/ANTT/wDqrv8AsGPZ7LXexh+8R9Bjxla/9TT/APqrv+wY9dswSo0fGUJL8hpszbQZEtZFrxH7IpH/AG0/1R8pJ/zo9k/OFnAcb1Rp/wDd8f8AnU/0h6o0/wDu+P8Azqf6RrMzkgON6o0/+74/86n+kPVGn/3fH/nU/wBIDkgON6o0/wDu+P8Azqf6Q9Uaf/d8f+dT/SA5IDjeqNP/ALvj/wA6n+kPVGn/AN3x/wCdT/SA8BnP/or/ANh/9mY5GAe81af5PT/tKHDzdJjyLVPgH23N1D+u4oj0+9n7A5mAe81af5PT/tKG1H/az/VHylhn/Oj2T84UAAAarMCVbS3e6pHOBYn2qpYqolW0t3uqRzgWJ9qqWAqolVx8qfHnN/eXlG3BVRKrj5U+POb+8vKNuAKqAAAAAAAAAAAAAAAAJVtY8ljMnN/cPk58VUSrax5LGZOb+4fJz4qoAAAAAAAAAAAAAAAAAAAAAAAAAAAAAAAAAAAAAAAAAAAAAAAAAAAAAAAAAAAAAAAAAAAAAAAAAAAAAAAACVY87+uXPzB9TWKqJVjzv65c/MH1NYqoAAAAAAAAAAAAAAAAAAAAAJVbnKnyHzf2b5RuMVUSq3OVPkPm/s3yjcYCqgAAAAAAAAACVbJ3JYw3zf295OYFVEq2TuSxhvm/t7ycwAqolWG++LnbnAh/ZWgiqiVYb74uducCH9laCAqoAACVW5yp8h839m+UbjALc5U+Q+b+zfKNxgAqoAADH/NvfmtT8izP9shxx6rM+N7zuK5aHedkop8qVTYz8J6HMdNolIcMjJaVEWmpGR6kf4B4z1kZ+9qFu/Gh/wBA3q7fl6KJpqjaMbzEd8+LXpq8nVVExO8+Hqh+psbpyG/E39zh2lN72mum8Rlrp/hHjIWOKzTojUGDkKrsR2EkhttDbZElJeDtD2PrIz97ULd+ND/oD1kZ+9qFu/Gh/wBAut0XrUTTTVTifXTPzUrqornMxPwl0eLMa3DkCXckeZk6txCoc5ERs2m21cIRo3tT1LiMe+62yp+7BcX8w0PH0+t3bhyNVLcjIpsu/rvnFOVEYUp2NSYpJJJPPK4tT4j0T4dSPj4iPqa5mvP1DnnA3zqGiSVw0G3TdaPXwb2+XGXhG5VReuV4t1UxGIxmI32jM9Omfj3METRTT6UTPvn6+DsMvYmrePbVauCNlGvzFKqEaKbSiQ2W64vdM9U8epDoup1XvdMuD+WX9I8/eeT8x35R00O4KVV1xUyGpRE1bRoVvtnqnj3+1qOF698rf/KKz8nFf1xmmxqPJxFNdOd87R6sfd9rHFy1zTM0zj+/W9b1Oq97plwfyy/pHZYqxfXL7l3LHkZOr8RNEnIiINO44bhGjeNR73a4/YHgPXvlb/5RWfk4r+uOxx9e+Xrbqs2PQos6EuvSkvyn51vmTSVknQjNW/2JaEKRZv00Vc9dPTbaPH+nwVmu3NUctM/371v62yp+7BcX8w0HW2VP3YLi/mGhM6nnTP1MnvwOCfl8Ard4aNbRuNL/AApVv8ZCp4lzRWalWU2Nk1tiLWZaeHpUxto2mZzemqmzTqe46j+D4fx6b2rco1Nujniqme/aIzj4M1NVqqeWYmPfP1cZezTUHUKbcy7cC0LI0qSqOyZGR9sjLQVOxbVase0qZabExctqmM8Ah5aCSpadTMtSI+3oY74B59zUXLtPLVO3siPlDZptU0TmP1AABgZASraW73VI5wLE+1VLFVEq2lu91SOcCxPtVSwFVEquPlT485v7y8o24KqJVcfKnx5zf3l5RtwBVQAAAAAAAAAAAAAAABKtrHksZk5v7h8nPiqjHfbazHjKx8H5Bx1eF3xKNX7vx9c3qFHmpW03UFoguIU008pPBG7vOtkTW/vqNad1J6iq42zHjLMLdZk4wu+JckSgT/UudNgpWuIUkm0uGht/d4J/RDiDM2lLIt4tT1AezAAAAAAAAAAAAAAAAAAAAAAAAAAAAAAAAAAAAAAAAAAAAAAAAAAAAAAAAAAAAAAAAAAAAAAAAAAAAAAABKsed/XLn5g+prFVEqx539cufmD6msVUAAAAAAAAAAAAAAAAAAAAAEqtzlT5D5v7N8o3GKqJVbnKnyHzf2b5RuMBVQAAAAAAAAABKtk7ksYb5v7e8nMCqiVbJ3JYw3zf295OYAVUSrDffFztzgQ/srQRVRKsN98XO3OBD+ytBAVUAABKrc5U+Q+b+zfKNxgFucqfIfN/ZvlG4wAVUAAAAAAB4PM2RKhje0F1Si0KTVanKX0vDabYW42hZkZ77hpLiSRFrpxGo+ItOMy94AyWqqaK4qrjMR3eK2uJqpmKZxLDC2bigUcpFRqtPuWpVypL4eo1B2lPGt5w/AXFxILtEXa4u0XaHVv0jFMh5yQ9YNxKcdUa1n0pMLUzPUz4lDOMBvefUxXNdMVRM+FWPlDX83mYimZiYj1f8sCa7QrE6QP1tY/qXTu8WnT0WocFu+HuFa6+wPN+oUr3P6d/qtX/AKw2NANi3xibcYxVPtrn6MVWhiqc5iPdDXSxQnOGb6Zx/B4LeLhNyLV97d149NVaa6D2bFIxTHebkM2DcSXGlEtB9KTD0Mj1I+NQzjAW3eKzd7qo9lc/RWjRRR4f7WD9/TqHdcZuQzZ1SlVFjRDRzoE1DSWzPVRfeTIzP2B1NGWpVFdt+t2zIgRmVdMU96k06cp+NJ114QlO6mWmhdoxnsAso4jTbtxbimcRvHpdPZsuq0s1Vc8zHw/5SfZ+ybXr7oUmk3XSprFWou42uY7FW03OaPUkO9kRaLPdPeT/AIS7ZkVYAB596um5cmuinET3Nm3TNFMU1TkAAGJeCVbS3e6pHOBYn2qpYqolW0t3uqRzgWJ9qqWAqolVx8qfHnN/eXlG3BVRKrj5U+POb+8vKNuAKqAAAAAAAAAAAAAAAAMcdvTZgVtT4En2jQ2I/rtoz6atbrryybSclBGS2FLPtJdbUtPGZJJfBqPuB7LZ5xDbWyxs/W/jtt5rg7egcPVpjaTPpucvs5DpFpvK3nFGSEnqZJJCC10IVwecvNdlS6aql3hWY0Ng1tvFvVI4biVoUSkKStC0rIyMiMtDFldyi3HNXOI9a+i3Xdq5aImZ9Tg0DKNAuObT4kCDUkN1Fpo25DrSEtofcjFJTGXos1E7wJ759iaPBvb3EONWss0635NSi1S2K0yummwW8a4fBvG8tSGiSvh91ve3VKLhTb4iLXjNJH5CiM4ct5yHHo+V5TLdPbQUdDk1l5KZCYvSqZJrcaUpTnBcWilG3xEe5qPYJtizrtjy3KRdSpTsqqorKpMSRHkKbeS0lok7qkLbNBISSd1ST011IyURGWG1rNNfnltXKap9UxPyZrui1Ninmu26qY9cTHzciq5Utik+t0nCkvLuZLbsNtBNoWTStzRakuLSaj1cSW4jecPUzJBklRl2Nv3pT7hl1SC1AqEN+kmg3m5TJJUpte8aFkSVKNO8SFHuLJLhFoZpIlJM+hkYboT8WmwjrtZQzTIJUttJHGPfh/eTUwo1Mme6pUdKjUkyWRqUSVJLdJPb0SxkUStSa6m5axLkyyaac6ZOOZKYb4U0MmaWiUoiN4z3lGbh7qSNZlqR7LWdUjMtpOu0KO03MS/cUiVHhsyuBhO6sPky4ZtyXG190ZaISRuGX7ziMh7weOn4xpk+OmF6u1iPEU/IfkR2ls7knhpRSVIXvNmaSJepEaDSrdM+yM9DL2IAAAAAAAAAAAAAAAAAAAAAAAAAAAAAAAAAAAAAAAAAAAAAAAAAAAAAAAAAAAAAAAAAAAAAACVY87+uXPzB9TWKqJVjzv65c/MH1NYqoAAAAAAAAAAAAAAAAAAAAAJVbnKnyHzf2b5RuMVUSq3OVPkPm/s3yjcYCqgAAAAAAAAACVbJ3JYw3zf295OYFVEq2TuSxhvm/t7ycwAqolWG++LnbnAh/ZWgiqiVYb74uducCH9laCAqoAACVW5yp8h839m+UbjALc5U+Q+b+zfKNxgAqoAAAAAAAAAAAAAAAAAAAAAAAAAAAAAAlW0t3uqRzgWJ9qqWKqJVtLd7qkc4FifaqlgKqJVcfKnx5zf3l5RtwVUSq4+VPjzm/vLyjbgCqgAAAAAAAAAAAAA83e9/23YFMOoV6ZotZHwEZvQ3nzLwJT7HsmehF7I5V4XXTbKt6XcVUVq1GT2LZGRKdcPiShP4TP8A0cZ+AYVXXdFWvKuya/WXzcfkK4k69i0j96hJeBJF/SfGZiJ9qO0scEtxasxE3aunhEeM/pH9zL+yvZirjtybt6ZizT1x1mfCP1n+49jfWdr0u95xiDMco1N1MkR4jhpWpP8AfuFoavxFoX4BOVrW4tTjijUpRmalGepmfsmPyA43rNdqeIXJu6muap9f6R0j3O16LQabh1uLWloimn1frPWfbIPrFlyoT6JUKS7HebPVDjSzQpJ/gMuMh8hQsL2ousZCpLVZt9yVS18Pw3DxlKZPRhw07xmWndEWn4dA0OmuazU0WLe01TEZ8MzjPuNfqrei01y/d3immZx44jOPe9NjraNrdFcbpl7G5VIBmSSlF/6QyXsn/wDEL8fZfhPtDJGkVil1+nM1ajTmZkR8tW3Wlakfsl+Ay7RkfGR9sdH1LMce0mj/AOqI/oEGoOQEYty5XKWhHBW6/UnWH4rZaIYLe0S4hPgNPh07aeLwFp1nT6rW9mYt2uKXYuW655YnfNPtmesfnH5OQajS6HtTN27wm1Nu7RHNNO2KvZEdJ/KfzZRAPy24282l1pxK0LSSkqSepKI+0ZH4SH6E36oJ0AAAAAAAAAAAAAAAAAAAAAAAAAAAAAAAAAAAAAAAAAAAAAAAAAAAAAAAAAAAAAAAAAAAAAASrHnf1y5+YPqaxVRKsed/XLn5g+prFVAAAAAAAAAAAAAAAAAAAAABKrc5U+Q+b+zfKNxiqiVW5yp8h839m+UbjAVUAAAAAAAAAASrZO5LGG+b+3vJzAqolWydyWMN839veTmAFVEqw33xc7c4EP7K0EVUSrDffFztzgQ/srQQFVAAASq3OVPkPm/s3yjcYBbnKnyHzf2b5RuMAFVAAAAAAHwm/wDob/8A/Ev6DGPllXbV7G2JbbuegyGIs6LbUBDUp9sltROEUhs5C0qMiMmyWbhkZ6dhx8WoyJUlKkmlREZGWhkfaMh4a3cD4OtGpS61aeGbFotQqEd2JLl063YcZ6Qw6ZG604ttslLQvQt5JmZHpx6gJMm+si0mq1PEa8ozqwv11UygtXkqFTk1CE3LguSltqQhhMJT6VNpQg+lzLdkN7yFqLVXnc0ZZyBZtDfg2bli57on2dQpFUqdTt+mW43HNSJLrTaqs5OdJKkmphba2qe0hwltuno3vNtlkVDxPiyn2W9jeBjS1Y1pSN/hqAzRoyKc5vK3lb0YkcEequM9U8Z8Y+MrDWIJqaKibimzpCbbiLgUYnaFFWVNjKTuKZjao+8tmnsTQjQjLi00AeSxVEj3PKyzAqjSVMVa4CZkITxEaHaPBJZF/gUYk9Gm1FMq38m1SUs3sPlDtCeol8TinHHI081HoRGRp6Rd4vCgi7HUxlVTqNSKQchVJpUOEctwnpBx2Et8MskJQSl7pFvGSEITqfHolJdoiHGetS15EGpUuRbdKdh1pa3alHXDbU1NWtJJUp5Jlo4ZklJGaiPUiIvAAxXXcmRLCtepIpl6lar9mWjFveTSkwYrjddqVQlSXpDMk3kOPE1wiSaSTCmlkt3u1dikdnfFw5GqzVxXFKqs6st0nJFv0uiWylEOMwyW/Ad1W8bSXd/hHnNVKcURI7SDUREeRldsCxLoqlJrdzWVQavUaA7w9JlzqazIfp7nF2bC1pNTSuxLjQZHxF7A5a7ZttzheEt+mq4eaipO6xGz4SWjd3H1cXG6ncRos+yLdTofEQDHO5Mh5Kdt6hXRTcjXAcJMKRVq+VBgUNUmkuoeJDqJkOdo6qnMG2+2pMZapiloURLUe7p1UqsXbbFcyBEty/r5kVO68hNx4MKhUyiLqBoRR2JDiIq6ilqKxohJbypJunwbW6hPCKNYyLrWKcXXLNh1K48bWtVZdOnnVIcibR477keaZpM5LaloM0OmbaPvhaK7BPHxEPzX8TYrutU5d04ztSsKqjzEicdQo0aQcp1gjJlx3fQe+psjMkGrU0kZ6aAMSKhdV6XZbNFyVWbuqD8+PjO7UPRJsCkvsTVR5zDKVym22XGVrURIUsmV8Camy3C3DMlVCbkrILF7zbgYv7cgUu96VZaLOKFE6Xkx5LUdS5CnCbVKKTpIW6nddS0TbJEbXdLFtlYzxxObjMzsf23IbhFKKMl2lMLJgpOvTG4Ro7HhdT39O71Pe11H1cx9YTt3s5BdsigLumNF6SZriqaydQaj8f3lMjd4RLfZK7ElacZ8XGAiuGLtyrOuayahd2SJNdg3pRqzKfpbtNhssQnIslpLC2FstId1NtwycJxbhGrjSSO0Mih1sO2bbpyoS6fb9NiqprbjMI2YjaDjNuGRuIb0LsEqNKTUSdCPQte0OyABKtpbvdUjnAsT7VUsVUSraW73VI5wLE+1VLAVUSq4+VPjzm/vLyjbgqolVx8qfHnN/eXlG3AFVAAAAAAAAAAAAAY07Rdbq1z3rDsOiRpMz1PaJ04sZtTi3H1pNZnupIzPdb0P8BGoTDqd5A9otw/Fj/8AVFEsipKq+0wqepWpLqNRSg/7xLDyU/8A2pIZQjl+l4Db7V3tRr712af+pVTERidoiMflLquq7Q3OyNnT8Ps2oq/6dNUzMzHpTM5/OGAlSpVUo0o4VYpsqDIJJKNmSyppZEfaPdURHoPxAp86qTGqfTYj0qS+rdbaaQalqP2CIhkNkrD9yZDye/NZNEGkoisJdnPFqWpEepIT21H/AKCLwn4B1s+56Ni2G7QcTWnMnVJaeDk1uREWvU/Duap7LjLXi0RxEeihHr3ZqdLfuVamqaLNNUxEzGaqsfy09/t2iPFJLPaenVWLdOlpiu9VTEzETimjP81Xd7N6p8HysyxaZhpyNfuR7g6TnISvpSlRVEt1zVJpMlfwuI+0XYkehmrwDk3dtB01V7W/OpLT8qi0xtUqQ2kyQt191haCSevF97JzQ/wmr2CMSpu3b/v240pmRKhKqU41ffpiFpIzJJnoalFoktC0IuIi4i4hyrUxpU6lkGBY10RplIXL4beUprstENLWRp14lEZp01IzLjGza4prbdujScKszbtTXTiZzMzXmMc1U7bzjMYxjbo1bvCtDcuV6zi16Ll2KKsxGIiKMTnlpj0to5sTnOd+uFe66u3/AGqVD+eQIHd1bauS6KpX2GFst1CU5IS2syM0ko9dDMhfOtUt/wBtdQ/mUCB3dRGrbuiqUBh9bzdPlOR0uLIiNRJPTUyIO03798hR+9ccudscvXHq9SvZf9weXr/dGebG+ebpn1+tkrs33e9cFmOUSY7vyKE4lhJmfGbCiM29fxaKSX4EkK0MXtl2pKjXtUKYatG5lPUrT2VoWky/7lLGUI6H2R1lWt4TbqrnM05p+HT8sOb9sdFTouMXaaIxFWKo98b/AJ5AABJUXAAAAAAAAAAAAAAAAAAAAAAAAAAAAB1dIui3a9OqlMo1ZiTZVFkFEqDLLhKVHdNJKJKi8HEf+klF20qIropqqiZiNo6rZrppmImd56et2gAAtXAAAAAAAAAAAAAAAAAAAAAAAAAAAAAAAAACVY87+uXPzB9TWKqJVjzv65c/MH1NYqoAAAAAAAAAAAAAAAAAAAAAJVbnKnyHzf2b5RuMVUSq3OVPkPm/s3yjcYCqgAAAAAAAAACVbJ3JYw3zf295OYFVEq2TuSxhvm/t7ycwAqolWG++LnbnAh/ZWgiqiVYb74uducCH9laCAqoAACVW5yp8h839m+UbjALc5U+Q+b+zfKNxgAqoAAAAAAAAAAAAAAAAAAAAAAAAAAAAAAlW0t3uqRzgWJ9qqWKqJVtLd7qkc4FifaqlgKqJVcfKnx5zf3l5RtwVUSq4+VPjzm/vLyjbgCqgAAAAAAAAAAAAMScPmZ53hmruum6hqXsHwL2oy2GHNcqtQxZnGuVGJEZekQajIlsNva7i2pbalkfEZHoRPKT+NBj1fXUXh7XaP/od/rjmnAuOaLs/Tf0WsqmKouVT0mdsRH6Oocf4Dru0dWn12ipiaJtUxvMRvmZ/VUrkzRRrRvp20LjYcjRVMNONT2uz4NSy4yWnQ+L8Ja/hLwjzd93Pme2Yvrgt6p0yv2+4nhUTI0RKlNo9laUmfF/fJ1Li493tCEX3ek+/q+u4alEjx3ltIaNDG9u6JLiPjMzHKsTJt1Y/lb9HmcJDcVq/Ce7Jlz2eL96r++LQ+1rqXEPNv9rp1V+5ZuXKqbc1TyV0bVUx3Zp6VR+fhL07HY6NLYt3rdumq5FMc9Fe9NU9+KutM+uMxPfD2lE2l72j1Nh6vJiy4Kd43WWWEtrX2J6ESvB2WnH7A7G2M51W6smUWTc0uDSaHFXIWTfESGzOO4lJrcVxmepkXgLj7QO25jbNja5toPtW1dKiNbtOePRmQrtmadC4/fJLXiMzTx6jyFy4UuqhXVS7UhpROkVaNwsdwjJtCnENmp5G8o9Ox0P8ZGk/DoMVeo49Yii7buzfsxXTMTE5iqcximfvRvERNM98+tlt6bs/qJrs3LUWL00VRMTGJpjE5qj7s7TMxVHdHqlk31Usce3ajf62j+kYi5GmxKjflenwJLciNInvONOtq3krSaj0Mj8JD0/W8ZU/+SR/9da/rDwNXpU2hVSVR6k2TcqG6pl5JKJRJWk9DLUuIxg7S8V4lxCxRRrtPNuInMTiqMzjpu2Oy/COF8Ov116DUxdqmMTGaZxGeuyibOG91T4xJL/8nINX4t0v9+gy2GMWynS1zLvr1dIvvVMgNwtf4Tj6yWZF+FKWUmf4HCGTonfYixVZ4RTVV96Zn9P0QDt1qKb/ABmumn7sUx+v6gAAlyHAAAAAAAAA6+v1yDbdIk1upGoosUiU6adNSI1EWvGZFpx+z2gHYAJ3cGaKZSX3maJaNduhMaox6U87R3oBtokvoaU0nV+S1qSuGSWpa6GR72haGfyl5nkwarVKRIxNeSXqWUXeUTtKNLypLvBR0t/2brqtRK03iSREk9408WoUkB01q3NHuqmrnNU+ZAeYfciyocvg+GjvoPsm1G0tbajLUuNC1J/CO5AAAAAAAAGGs/ohjhtmmmYpSlwyLRb9Z3iI/epZLX+UQzKGAeyJ/wCrrm//AJ4v+y4JR2f0uju2NRqNXb5+TkxGZjrMxPT3Il2k1mts6jTabR3fJ+U58zyxV9mKZjr7Z6P3WtoXadzClVHtakLocGQXBrXS4q2exM/30l0zNJ+9UnUi7XbHg5FsZLwncTFUs+55DdZQwhUxcNfEZqPeNBpVxOo7WpKI9TLXT2MvRDcsKSi8JK1HoRMtGZ/9kSjh2ut1Vzp7Fmmi3MbxjOfbPeifE+H3KaI1N+/XXcidqs45f6Yjo+VK2+8kW1HQ1etk0qqG3ok1INyE86f4e7SR/iQRfgFq2d9rqJn27pdoN2I9Q34dLcqa3jqJSUGSHmm9wi4NB8fCkev4O0MVJMhUhzePiSXckPYbCfKRu34PzfrsQZOKcE4Z+77+oosRTcppzExM46+GcKcI45xWOIWNPcvzVbqqxMTEZ6eOM/m2AAADlbrQAAAAAAAAAAAAAAAAAAAAAAAAAAAAACVY87+uXPzB9TWKqJJg+Si67qyXlCConKPcFfZp9GkJ40y4lPiNR1yEH2jQqUUskKLUlIQhZGZKIVsAAAAAAAAAAAAAAAAAAAAAEqtzlT5D5v7N8o3GPXXZk7HtiSmIV5XlSaNIlNm6y3MkpbU4gj0NREfbLXiGJOVdqNFkbQ1euHFtTtmuxazaFqwXZEg1vMkbM+uqWSFNuILeSmQ2oyMz4lp9kZ7Omu36opojr8Gnqtfp9HbquXao9HrHf8GboDwmDr7q2TMW0O+K6xCZnVMpBuohpUlkuDkONp3SUpR9ygj7o+PUeymVKnU9UZE+fGjKmPFGjE86lBvPGRqJtGp9koySo90uPRJ+wMVVM0VTTPWGzbuU3aIuU9JjPxckAAWrwAAAEq2TuSxhvm/t7ycwKqJVsncljDfN/b3k5gBVRKsN98XO3OBD+ytBFVEqw33xc7c4EP7K0EBVQAAEqtzlT5D5v7N8o3GAW5yp8h839m+UbjABVQAAAAAAAAAAAAAAAAAAAAAAAAAAAAABKtpbvdUjnAsT7VUsVUSraW73VI5wLE+1VLAVUSq4+VPjzm/vLyjbgqolVx8qfHnN/eXlG3AFVAAAAAAAAAAAAAY67WFiPpYhZXpUdTnqY0UKsoQWqjhmrVt7Qu3wa1K1/vVmfaSIE24h1tLrS0rQsiUlST1IyPtGQ2BSo0abGdhzGG32H0KadacSSkrQotDSZHxGRkZkZDCTL+HLgwnUpNYo0KRU7EkOG42tojW7STUf9rcLtm3qfEr/AAHofdc07adna7tf7x0tOf5oj5/V1DsR2lotUfu3V1Y/lmfX3fR5kB8IM+HUo6ZUGSh5pXaUk/8AuP2D/AY+45hMTE4l1WJiYzDsrduKq2rVma5RHm2ZkfXg1rZQ5u6loehLIyLiMy17fGLLi/Ll13xkK36LcjdPkIbckPNvpj7jraiiulqRpPTjLUjLTTj/AAFpCByafUahSZbdQpU6RDlNa8G/HdU24jUjI9FJMjLUjMvxGY9XhfF9Rw27Ry1z5OKoqmmJ2nExPTpnbq8jivB9PxO1XzUU+UmmaYqmN4zEx16436M/Rg1mCX0nkG41JZW887VXWWGGy1W86pZkhtJeEzPQh11WzFeNIJDb1+XG7JdMksxmqk+p11RnoREkleExaMAYQuZdcTlvLrS/VdWrlKpkhRuLiGvtvvmrjN4y7RHxp1Mz0VoSZzqtXV22m3p7FqaKaas1VT0xj5oFpNJT2Fi7qb92muuqnFNMdc5+T2ePbFvrFGJ49PtOgUKt3dNkFPqbFVrLtOiqec03yJ9qNJV97SlCEkTZkrd11LUfb1x7U/uN4q+cuo+ghVQHRtPYt6W1TZtRimmMQ5pqNRc1V2q/dnNVU5n3pV649qf3G8VfOXUfQQeuPan9xvFXzl1H0EKqAzMKVeuPan9xvFXzl1H0EHrj2p/cbxV85dR9BCqgAlXrj2p/cbxV85dR9BB649qf3G8VfOXUfQQqoAJV649qf3G8VfOXUfQQ+0Q85XbITb+Q8bWJR7el6lMm0a+Zk+Y1ukakcGw9SGEL1WlCT1dTolSjLeMiSdPAB5eTjuhSZk2Yb0ttU6qwaw4ltSCST0UmibSkt3uT4FO8XGZ6noZcWit45t24ZVTkVZLshFX9TylR3CbWypMN5Trad1ST1JSlGSiPXUu1p2x6gAHgbldyxbUmLSMSYysKfQmoxHrU7qk0ZbLxrVvNojx6ZJQaN3cMl76TM1KLcLdJSuo9ce1P7jeKvnLqPoIVUAEq9ce1P7jeKvnLqPoIPXHtT+43ir5y6j6CFVABKvXHtT+43ir5y6j6CD1x7U/uN4q+cuo+ghVQAePseqZenypKMk2PZ9CjIbI4zlDuqVVluL140rQ9TopILTj1JSjM+LQu2MItlq4qLQoFwpq1QbjG89GNBKI+y0SvXtF+EhsNGq3GSybOpRXOxdSpszSfb4t4j/0H9ImvZWxGo0urt1d/k/nUgna+/VptZo7lPWPKfKllz1QLN/8AnzH+hX9Ak+QYVTvK4Xqpa8J+o080IQT7CDNKlpToZf4B4ufK3SNhs+M+6P2PwCzYa/6Gl/1p3/cPb81p4XT5zRvPTd4tGpq4tV5tc2jrt6kn9YV5e1yd/NjmbHtDqszaAv2gM1ypW7PXbs5kp0FuOqVEX07E7JCZDTrRqLtdm2ovwDIUR7ZBebm7W+RZsU+EY9TainhElqnXp+MRcf4d09PZ0F9zX16zhuriqIiIo/WFKOHW9FxPRzRMzM1/pLJLqN5F8bHKvxbavoYOo3kXxscq/Ftq+hhVQHLHVkq6jeRfGxyr8W2r6GDqN5F8bHKvxbavoYVUAEq6jeRfGxyr8W2r6GDqN5F8bHKvxbavoYVUAEq6jeRfGxyr8W2r6GDqN5F8bHKvxbavoYVUAEq6jeRfGxyr8W2r6GDqN5F8bHKvxbavoYVUAEq6jeRfGxyr8W2r6GDqN5F8bHKvxbavoYVUAEq6jeRfGxyr8W2r6GDqN5F8bHKvxbavoYVUAEq6jeRfGxyr8W2r6GDqN5F8bHKvxbavoYVUAEq6jeRfGxyr8W2r6GDqN5F8bHKvxbavoYVUAEq6jeRfGxyr8W2r6GHzf2ffXA2cLJGZci3tTFcTtNqE2FT4r6f4DyKXFiG8g/ChZqQouJRGRmQrIAPhBgwqXCj02mw2IkOI0hiPHYbJttltJElKEJToSUkREREXEREPuAAAAAAAAAAAAAAAAAAADyuTbzRYth3Lc8d6EqfR6NNqUWPJc0S84yytaEmRGSjI1JIj0PX2B31WZqsinvM0WfGhTVpMmn5EY5CGz9k2yWg1fyiGCW2PbGQ7UuW1riue46bcCpNKOlIqZ0XgNFsuLWZrQTqkE4on9dSJJGSe57Exv8N0ca/VU6easZ+mfGOvTq8fj3E6uD8Puaymnm5cd+OsxGdoqnbOek9EjzHmO4c83JTavdEOnQXaZAVHaTT2FklSVLJZ72+4o9dT04jLtCfQTbnFGh75t7shKjVu72p8KRa6alxanr+L/SPYQqtXZa2YLESiuyHDJCVHAMt5Xsn980H4VOuOjyZVNqSaPIkR33G1mqAnsFEoyNJGhZJMiMtCPj/GY6Ta4RRYmLNvaN5xtt/+suCantJXrKatTqJ5pmYiZ3jMxE+FvEbd20rpspbT1006tWlg5+l0RFCbmS4ZznEOIkEg+Gf3jUbm4R73F3PaFM2xbht6eu1kQ7pgSDgLmFIixZqVvsOLS2pp80oPeQSeBdSTnFopRER6qIYaNXDV4RuqlrpEgnFGpKFU4iNBfwU7qy4vx6n+EVHZ7xpfGdLzbU70hEtSirbeqC109aozqkmSkxtCcI1qcLQlJ3i3WzM+IzSSvJu8GscKuxxK5OKad5pxG87/APlPX2T7En0vajV9odPVwLT0xVVcxEVxNUcsbb48nGeXGd5jPTPRfsB7UOQ8jXLSLJdsiHV2UMtM1GrxJayOMSG+zkvHuGjVak8SNUnqrQjPTUZSjyFsW3fdHrUmXV7yo0ykvoSTdMh2/wBJpjqLe1Uhzh1mZq1Le3t7uS03ePX14g2ru2r13msUclPhmZ/OXXOGabU6XTxb1d6btf8ANNMU+7FP/M+sAAGs9AEq2TuSxhvm/t7ycwKqJVsncljDfN/b3k5gBVRKsN98XO3OBD+ytBFVEqw33xc7c4EP7K0EBVQAAEqtzlT5D5v7N8o3GAW5yp8h839m+UbjABVQAAAAAAAAAAAAAAAAAAAAAAAAAAAAABKtpbvdUjnAsT7VUsVUSraW73VI5wLE+1VLAVUSq4+VPjzm/vLyjbgqolVx8qfHnN/eXlG3AFVAAAAAAAAAAAAAB+HmmpDS2H2kONuJNC0LSRpUky0MjI+2RkP2ADHjI2x1a1cmvV/G1YdtGpumalx2kb8J0/Y4MjI2/wDs6pLwJEdq2A9pO3HFtotmlXEwj/8AMQpbaTUX4ErUhX/2DOkBHNf2V4br6prqo5Znw2/v3JLw/tZxPh9MUUV80R3Tv/fvYBsY42hJjnS8fEExDna3nn220f6VKIv+8eqoWyxne5lpO5K1RbUimei0tL6ZkEXskSDNJ/zhDNIBpWOxHC7NXNVE1e2f+P1b2o7dcVvU8tMxT7I3+f6JXifZxx7ilaarFjuVivKL75Vqhot0j8PBp7Tf4y7LTiNRiqAAlOn01rS0Ras0xTTHgieo1N7V3Ju36pqqnvkAAGdgAAAAAAAAAAAAAAAAAAAAAAAAAAAGu7ajxPcGDr5lZAtunqetitylONLQn73FdcM1LjuadyWupoPTTTQuM0mNiI4NbolIuSkyqFX6bHqFPmtm1IjSGyW24g/AZH//AMR8Y9ngfGKuD6nynLzUTtVT4x9Y7nh8e4LRxvTeSzy10701eE/Se9rFodxU64Y3TMJ7VZf2xpR9mg/wl/v7QyJw1/0NL/rTv+4ePzbsJXFbc167sEy3pkVJm4qjOvbspj2SZcPQnU/3qjJWhaarMxKLTpG05kdt3F1t0Gqw2orym6kpUY4SWlK01KQ6si3eL94WhmX71Q6XdnRcZ0vldLfpiiMTVzTiafbH9xPi5nYjXcE1fktXYqmuYmKeWMxVPqn598eCl5v2g4VAYfs2wZRT7gk/2OuRGPfTDUZ6aJMu6d7ZERdyfb4y0Fu2McA1LEVoS7mu6ObNzXMTa3Y6+7hRk6mhpXsLUajUsvB2JHxpMfTZ62OLQw86xdFzPM3FdaCJTchTf9jQVf8A0EK4zV/9RXHxdiSdT1yJEM43xvTU6eeG8N3omfTrnrXMdIjwpj++/M14HwTVVamOJ8T2riMUUR0oiesz41T/AH3YAACHJmAAAAAAAAAAAAAAAAAAAAAAAAAAAAAAAAAAAAAAAAAAAAAAAAAADzWQsfWzk22X7VuqEl+K4tDzSyQlS47yD1Q6jeI07xcZcZGRkakqI0qMj6fMeQKxYNBpSLYpkWfcFy1mNQKQ1MWpMZMl4lq4R409lwaENuLMk8Z7uhaa6iI5Ir+Wsd5RxxcWWqlbtdolGTcVYTIokJ2G+lUeiS1uMqacdWSiNBGaFEZce8RlxkMlHNExVTOJYbs0VUzRXGYnafDfxdpW9np+m0ebbzONKNVmZrSmE1GhtRY0lJcRks0yVI4IyURGRJdcLVJGenaLHaZsibQa6muJTbSU9BNw0omOzojGiddNVIN01l/2SUXsGYyZmZM2gLPsiHmy9W7MdtdbUedU6BCjyETYEF9SCJSJSnDQ862laVLSaEpVoskmXYju6Zd+bsm1+5ZuPqjadv29bVckUFhuq096ZIqb8Vzg5K1qbeQTDe8Sko0JSj3dT01Ie3o+P67QxVFFUTnxzO/xRLifYvg/FqqKrtExNPTlxG3Xw6fmimO9gKrvS2p+UrrjsRkqJSoFJM3HXS4j3VPLSRI9gySlWpdpRHxjMG1rUt2yaDEtm1KQxTaZCTuMx2SPQuPUzMz1NSjPUzUozMzMzMzMxj5YN4XwnaCyhZ9sUuI3SIdyRqzcVYnKNaGIh06MhMeO0kyUp5zgV9kfYoSnXRRmRDr5e0HmKRRrfyHRHbVdTeEpJW1YKYL71VqUI3NDeXJS5usrJBGs1G3wKC0JStRpa7iGr4lVE6ivPhHSI90PW4Rwbh3A7c06K1y56z1mceMzv7unhDKkBKIF85HvjKVWtu0G6LSLZs2ZEi1uTUGHJEufIcaQ+5HjpQtKGkpbcSRuK3uyMtCMiPWrjzpjD3Inm6AAAoqCVbJ3JYw3zf295OYFVEq2TuSxhvm/t7ycwAqolWG++LnbnAh/ZWgiqiVYb74uducCH9laCAqoAACVW5yp8h839m+UbjALc5U+Q+b+zfKNxgAqoAAAAAAAAAAAAAAAAAAAAAAAAAAAAAAlW0t3uqRzgWJ9qqWKqJVtLd7qkc4FifaqlgKqJVcfKnx5zf3l5RtwVUSq4+VPjzm/vLyjbgCqgAAAAAAAAAAAAA6B28KfCcr66mhUeNb5tcK8klOG4S2kudihJGoz7LdJJamZ9rt6Dvx5ypY/terz51RnR56nak2TUtDdUlNMukSNwjNpDhN7xJ00USd4jIjIyMiMg65/MNgRJDcafVpMNxbjjJlJp8hokONktS0KNSCIlEltStP4O6faUkz4s/KrTdq3LctMojizoEpqI2zUDehE+pbbCyUveaUttP38tTJtZ6JMyI9dBySw3jvplctyjSnnXlk4+p6qS3OmFEbmhvEp0yd/tzhdnvcRkXaSki7BjHdqx6JPt5EacqHU3UPyjdqkpx5biEtpSonlOG6kyJpvTdUWm7+MB56hZtt2ZSokmvpRTp0qaunJbjm9JjLkk4lskofNpB6KUpJFvoQrj1NJJ4z5MbNVk9LQjqkiXCmy4Eed0oUKQ6rdd4EiJs0t/fdFSWk6pI9TM/YURclOH7ATIKYdNnuSOGbfW85WJq3HlocJxBuqU6Zu7qkp0JZqIiSSe0REP3FxFj+FJZlRqK+hUc2zbR6oyTbSaOB3T4M3NzUul2ePTU93j7atQ/i8uWM1FfnOT5yY8Rpbsp31LlbkYkm4RpdPg+wVqy4W6eh6kktOyTvcu3ck2jddR9SqBOkS5CWlOuEmG8lDRJcW2ZLWaSSg95CtCMyMyLUtSMjHyk4sseWp83aVIJMonOHbbqMltt03FOqUpSEuElStXnDJRlvJ1LdMt1OnaUS06Hbzzkmlx3yeeaJlx1+W9IWpBOLcIjU6pR8SnV6fgMi7RERB3AAAAAAAAAAAAAAAAAAAAAAAAAAAAAAADxmV7efua2G6Y3RJNWb6dZdeiMHFVwiEmfdtStGX0a7u82tSeLVST30pI/AR6Zn+DT4kOjx/UplinkhiJFahrYaURSOwXw0hxba/7RupSp1pB7qSUaCWAuQCTTJOZkG9DpFHrym5KEHGkznqUa4ppOTvk7wayI97+xt3dSvi03jI94ddV6fkm1Z0u53J815mDBedKQtcJCZb5MwVJQ8lCUmpTi2pDCVJQak7xEWhbpgLUAmN2W9c9btq3zrtuouhSUOuVSkuNx3GjkOt6tLUy840082yszLcUtJmWiiM1JIx0lBo2Z6dRaeclFQhsx2mGXKTSOkUKQ3/AGQaja6ZdeJCiPpUjQchaEp30tmehALSAiNUrGdKdRGmalTqqmQ2qMUifBOnKJ1Ti4SDbaStRmS95UotVoJBdve03TFRsorjK3mfXVw3T5vSD0fNo3Usm8vgScNn72aya3CVu8WuvbAd6AAAAAAAAAAAAAAAAAAAAAAAAAAAAAAAAAAAAAAAAAAAAAAAAADzGRMe0PJltqtuuvTYxIkNTIk2A/wMqFKaVvNPsuaHurSfaPQy4zIyMjMh5alYGpSq+VzZAvCvX3OZp8ilwyrRRksRIz6Nx8kNR2m0b7iOwW4ojUaeLUtT1qACsVTGy2aYmcyjUTZnpSIFNtarZKvKsWbR5LUmHbU2THVF0aWS2WXXUsk+8y2ok7ra3DItxOuug7Obgs2LjrFesrJ122ixcUsp9Up1LVEXGek8W++gn2HDZcc3S31IMt7TjIVIBXmlTkpStGzxacbJcnLVMrlbp9xy6qmoSH4z6EofY4BtlcJ1BoMnGFE0StFdklRmaVJHU2fss2rj6+Xbxse77ipEeQ+h1yltlEcZJpKzWURt1xhT7UU1GZmyhwiPX8BaWoA5pPJ0+Dzdq2LTLSrV0VyDKlOvXXUkVSUl40mlpxMdpgkt6ER7u6yR8ZmepmPSAAtzldEY6AAAKglWydyWMN839veTmBVROtm+36zaezxi61rjpzsCrUay6JT58R4tFx5DMFlDjatPClSVEf4SAUUSrDffFztzgQ/srQRVRKsN98XO3OBD+ytBAVUAABKrc5U+Q+b+zfKNxgFucqfIfN/ZvlG4wAVUAAAAAAAAAAAAAAAAAAAAAAAAAAAAAASraW73VI5wLE+1VLFVEq2lu91SOcCxPtVSwFVEquPlT485v7y8o24KqJVcfKnx5zf3l5RtwBVQAAAAAAAAAAAAAAAAAAAAAAAAAAAAAAAAAAAAAAAAAAAAAAAAAAAAAAAAAAAAAAAAAAAAAAAAAAAAAAAAAAAAAAAAAAAAAAAAAAAAAAAAAAAAAAAAAAAAAAAdXcty0m0qQ5W60uUUVtbbWkWE9LeWtxZIQlDLKFuLUalERElJnxji0e97erkR+ZEcnsJjRilvNT6ZKhPtMmpxJKUzIbQ4WptOaap1Mi17RkZ/m+bYk3dQfUiJUW4LyZcWWh5xlbqSNl9Du6aUONq49zTUlkZa6/gHRMWDdTMqS9666UbVQpiKbMR6kvqUaULfMlNrXLUaT0f0Pe3+514tdCD1NLuWh1p+RHpc9MhURDSnzQhW43wid5CTUZbu/umlRo13iJSTMiJRa/2v3LRLXpjtYrk4o8RgjNa0trcPiIzPRKCNRnolXERH2jHlaFiiLb9q1WyIVXcOi1CITbLK0KW5FkqQZOvJcUszMlr3Xd0+Mlms9494iT5+k4BVTaVU6c9eCpTk9h9CHXIBETLrrDiVubpOdkRvyZbxp1L+3EnUtwjMKFbd5W/dcZyTSX5SDZNJOsToL8GS1vdya2JCEOpJWh7pmkiPQ9NR2Eyq0+A9Fjy5SW3Jr/SzCdDM1Obi17vF2uxbWep6FxCb1vDdYuSVJrFduWiTKm+2mKROUBS4SY6WXm0l0uqSZm6RyHFcJwmmh7u6XGY4UzZ7ZnxCpsi5GCYblOykSm6bu1B5S0uFuyJHCff0EpwuwNBJUhO4olEZgK7wzJEZm6jQiIz7IuLXtD9iSxsBQVVh2qVipwJ6X5pTXW1U5wuFPplEhSFkp9Takkpsko7DVCdC1Pj1rJERERERERcREQD+gAAAAAAJVhvvi525wIf2VoIqolWG++LnbnAh/ZWggKqAAAlVucqfIfN/ZvlG4wC3OVPkPm/s3yjcYAKqAAAAAAAAAAAAAAAAAAAAAAAAAAAAAAJVtLd7qkc4FifaqliqiVbS3e6pHOBYn2qpYCqiVXHyp8ec395eUbcFVEvyTiK5L5yTal8W/lCt2Wm3qHWqS87RY0B2VJOdIprqU/2dGkNE2XSCjVogl7xt6KIt4lBUAEq6jeRfGxyr8W2r6GDqN5F8bHKvxbavoYBVQEq6jeRfGxyr8W2r6GDqN5F8bHKvxbavoYBVQEq6jeRfGxyr8W2r6GDqN5F8bHKvxbavoYBVQEq6jeRfGxyr8W2r6GDqN5F8bHKvxbavoYBVQEq6jeRfGxyr8W2r6GDqN5F8bHKvxbavoYBVQEq6jeRfGxyr8W2r6GDqN5F8bHKvxbavoYBVQEq6jeRfGxyr8W2r6GDqN5F8bHKvxbavoYBVQEq6jeRfGxyr8W2r6GDqN5F8bHKvxbavoYBVQEq6jeRfGxyr8W2r6GDqN5F8bHKvxbavoYBVQEq6jeRfGxyr8W2r6GDqN5F8bHKvxbavoYBVQEq6jeRfGxyr8W2r6GDqN5F8bHKvxbavoYBVQEq6jeRfGxyr8W2r6GDqN5F8bHKvxbavoYBVQEq6jeRfGxyr8W2r6GDqN5F8bHKvxbavoYBVQEq6jeRfGxyr8W2r6GDqN5F8bHKvxbavoYBVQEq6jeRfGxyr8W2r6GDqN5F8bHKvxbavoYBVQEq6jeRfGxyr8W2r6GDqN5F8bHKvxbavoYBVQEq6jeRfGxyr8W2r6GDqN5F8bHKvxbavoYBVQEq6jeRfGxyr8W2r6GDqN5F8bHKvxbavoYBVQEq6jeRfGxyr8W2r6GDqN5F8bHKvxbavoYBVQEq6jeRfGxyr8W2r6GDqN5F8bHKvxbavoYBVQEq6jeRfGxyr8W2r6GDqN5F8bHKvxbavoYBVQEq6jeRfGxyr8W2r6GDqN5F8bHKvxbavoYBVQEq6jeRfGxyr8W2r6GDqN5F8bHKvxbavoYBVQEq6jeRfGxyr8W2r6GDqN5F8bHKvxbavoYBVQEq6jeRfGxyr8W2r6GDqN5F8bHKvxbavoYBVQEq6jeRfGxyr8W2r6GDqN5F8bHKvxbavoYBVQEq6jeRfGxyr8W2r6GDqN5F8bHKvxbavoYBVQEq6jeRfGxyr8W2r6GDqN5F8bHKvxbavoYBVQEq6jeRfGxyr8W2r6GDqN5F8bHKvxbavoYBVQEq6jeRfGxyr8W2r6GDqN5F8bHKvxbavoYBVQEq6jeRfGxyr8W2r6GDqN5F8bHKvxbavoYBVQEq6jeRfGxyr8W2r6GDqN5F8bHKvxbavoYBVQEq6jeRfGxyr8W2r6GDqN5F8bHKvxbavoYBVQEq6jeRfGxyr8W2r6GDqN5F8bHKvxbavoYBVQEq6jeRfGxyr8W2r6GDqN5F8bHKvxbavoYBVQEq6jeRfGxyr8W2r6GDqN5F8bHKvxbavoYBVQEq6jeRfGxyr8W2r6GDqN5F8bHKvxbavoYBVQEq6jeRfGxyr8W2r6GDqN5F8bHKvxbavoYBVQEq6jeRfGxyr8W2r6GDqN5F8bHKvxbavoYBVQEq6jeRfGxyr8W2r6GDqN5F8bHKvxbavoYBVQEq6jeRfGxyr8W2r6GDqN5F8bHKvxbavoYBVQEq6jeRfGxyr8W2r6GDqN5F8bHKvxbavoYBVRKsN98XO3OBD+ytBDqN5F8bHKvxbavoYeqsDHsOwW608ivVWt1K46g3VKtUqnwBPy5SIUaGThpjtNMo+8w2C0Q2lOpGenGYD1YAACVW5yp8h839m+UbjALc5U+Q+b+zfKNxgAqoAAAAAAAAAAAAAAAAAAAAAAAAAAAAAAlW0t3uqRzgWJ9qqWKqPNZFx1aOVrVdsm+qS1VKJJmQZsmE8hK2ZBxJbUptt1CiNK2zcYQS0KIyUk1JPiMB6UBKutO2WPFpxV8jad5kOtO2WPFpxV8jad5kBVQEq607ZY8WnFXyNp3mQ607ZY8WnFXyNp3mQFVASrrTtljxacVfI2neZDrTtljxacVfI2neZAVUBKutO2WPFpxV8jad5kOtO2WPFpxV8jad5kBVQEq607ZY8WnFXyNp3mQ607ZY8WnFXyNp3mQFVASrrTtljxacVfI2neZDrTtljxacVfI2neZAVUBKutO2WPFpxV8jad5kOtO2WPFpxV8jad5kBVQEq607ZY8WnFXyNp3mQ607ZY8WnFXyNp3mQFVASrrTtljxacVfI2neZDrTtljxacVfI2neZAVUBKutO2WPFpxV8jad5kOtO2WPFpxV8jad5kBVQEq607ZY8WnFXyNp3mQ607ZY8WnFXyNp3mQFVASrrTtljxacVfI2neZDrTtljxacVfI2neZAVUBKutO2WPFpxV8jad5kOtO2WPFpxV8jad5kBVQEq607ZY8WnFXyNp3mQ607ZY8WnFXyNp3mQFVASrrTtljxacVfI2neZDrTtljxacVfI2neZAVUBKutO2WPFpxV8jad5kOtO2WPFpxV8jad5kBVQEq607ZY8WnFXyNp3mQ607ZY8WnFXyNp3mQFVASrrTtljxacVfI2neZDrTtljxacVfI2neZAVUBKutO2WPFpxV8jad5kOtO2WPFpxV8jad5kBVQEq607ZY8WnFXyNp3mQ607ZY8WnFXyNp3mQFVASrrTtljxacVfI2neZDrTtljxacVfI2neZAVUBKutO2WPFpxV8jad5kOtO2WPFpxV8jad5kBVQEq607ZY8WnFXyNp3mQ607ZY8WnFXyNp3mQFVASrrTtljxacVfI2neZDrTtljxacVfI2neZAVUBKutO2WPFpxV8jad5kOtO2WPFpxV8jad5kBVQEq607ZY8WnFXyNp3mQ607ZY8WnFXyNp3mQFVASrrTtljxacVfI2neZDrTtljxacVfI2neZAVUBKutO2WPFpxV8jad5kOtO2WPFpxV8jad5kBVQEq607ZY8WnFXyNp3mQ607ZY8WnFXyNp3mQFVASrrTtljxacVfI2neZDrTtljxacVfI2neZAVUBKutO2WPFpxV8jad5kOtO2WPFpxV8jad5kBVQEq607ZY8WnFXyNp3mQ607ZY8WnFXyNp3mQFVASrrTtljxacVfI2neZDrTtljxacVfI2neZAVUBKutO2WPFpxV8jad5kOtO2WPFpxV8jad5kBVQEq607ZY8WnFXyNp3mQ607ZY8WnFXyNp3mQFVASrrTtljxacVfI2neZDrTtljxacVfI2neZAVUBKutO2WPFpxV8jad5kOtO2WPFpxV8jad5kBVQEq607ZY8WnFXyNp3mQ607ZY8WnFXyNp3mQFVASrrTtljxacVfI2neZDrTtljxacVfI2neZAVUBKutO2WPFpxV8jad5kOtO2WPFpxV8jad5kBVQEq607ZY8WnFXyNp3mQ607ZY8WnFXyNp3mQFVASrrTtljxacVfI2neZDrTtljxacVfI2neZAVUBKutO2WPFpxV8jad5kOtO2WPFpxV8jad5kBVQEq607ZY8WnFXyNp3mQ607ZY8WnFXyNp3mQFVASrrTtljxacVfI2neZDrTtljxacVfI2neZALc5U+Q+b+zfKNxgPa0mxbbod1T7vpULpabUKPTaE422ZJYRDguS3I6ENkWiN05z5cXg3S/egA//2Q==;" vertex="1" parent="WIyWlLk6GJQsqaUBKTNV-1">
          <mxGeometry x="40" y="30" width="888" height="620" as="geometry" />
        </mxCell>
      </root>
    </mxGraphModel>
  </diagram>
</mxfile>
